<?xml version="1.0" encoding="utf-8"?>
<!-- Generator: Adobe Illustrator 24.2.3, SVG Export Plug-In . SVG Version: 6.00 Build 0)  -->
<svg version="1.1"
	 id="svg2" xmlns:cc="http://creativecommons.org/ns#" xmlns:dc="http://purl.org/dc/elements/1.1/" xmlns:rdf="http://www.w3.org/1999/02/22-rdf-syntax-ns#" xmlns:svg="http://www.w3.org/2000/svg"
	 xmlns="http://www.w3.org/2000/svg" xmlns:xlink="http://www.w3.org/1999/xlink" x="0px" y="0px" viewBox="0 0 809.6 907.2"
	 style="enable-background:new 0 0 809.6 907.2;" xml:space="preserve">
<style type="text/css">
	.st0{fill-rule:evenodd;clip-rule:evenodd;fill:#F1CB9D;}
	.st1{fill:none;stroke:#000000;stroke-width:4;stroke-linecap:square;}
	.st2{fill-rule:evenodd;clip-rule:evenodd;fill:#FFFFFF;}
	.st3{fill:none;stroke:#000000;stroke-width:4;}
</style>
<g id="layer1" transform="translate(29.684 21.307)">
	<path id="path2966" class="st0" d="M-29.7-19.7v905.7h809.6V-21.3L-29.7-19.7L-29.7-19.7z"/>
	<path id="path2299" class="st1" d="M15.7,18.9h711.7"/>
	<path id="path2301" class="st1" d="M15.7,111.4h711.7"/>
	<path id="path2303" class="st1" d="M15.7,203.9h711.7"/>
	<path id="path2305" class="st1" d="M15.7,296.5h711.7"/>
	<path id="path2307" class="st1" d="M16.6,389h710.8"/>
	<path id="path2309" class="st1" d="M16.9,481.5h710.4"/>
	<path id="path2311" class="st1" d="M16.9,574h710.4"/>
	<path id="path2313" class="st1" d="M17.2,666.6h710.1"/>
	<path id="path2315" class="st1" d="M17.7,759.1h709.6"/>
	<path id="path2894" class="st1" d="M728.5,18.9l1.7,831.6"/>
	<path id="path2896" class="st1" d="M15.7,18.9l1.7,831.5"/>
	<path id="path2924" class="st1" d="M17.7,850.5h709.6"/>
	<path id="path2952" class="st1" d="M461.2,18.9l1.7,831.6"/>
	<path id="path2954" class="st1" d="M193.9,18.9l1.7,831.5"/>
	<path id="path2956" class="st1" d="M372.1,18.9l1.7,831.6"/>
	<path id="path2958" class="st1" d="M104.8,18.9l1.7,831.5"/>
	<path id="path2960" class="st1" d="M550.3,18.9l1.7,831.6"/>
	<path id="path2962" class="st1" d="M283,18.9l1.7,831.5"/>
	<path id="path2964" class="st1" d="M639.4,18.9l1.7,831.6"/>
	<path id="path2297" class="st2" d="M18.8,390.2v90.5h708.6v-91L18.8,390.2L18.8,390.2z"/>
	<path id="text3030" d="M142.1,411.2c0.6,0.2,0.9,1.1,1.1,2.8c-0.1,1.6-0.8,2.9-2.2,3.8c-1.6,0.6-3.2,1.2-4.8,1.7
		c1.3,0.1,2.6,0.4,4.1,0.9c1,0.6,1.5,1.4,1.5,2.4c-0.5,4-1.3,6-2.4,6c-0.2-0.1-0.6-0.6-1.1-1.4c-0.6-1.1-1.5-2.2-2.6-3.4
		c0.1,6.5,0.4,11,0.9,13.4c0,0.6-0.1,1.1-0.3,1.5c6.5-1.7,12.1-2.7,16.8-3l-0.1-0.1c0-0.6,0.2-1,0.5-1.4c0.1-0.6,0.2-1.3,0.2-2.1
		l0.1-7.7l-7.3,6.2c-1.8,1.4-2.9,2.1-3.6,2.1c-0.5,0-1.3-0.3-2.4-0.9c-0.7-0.5-1.1-1-1.1-1.6c0-0.4,0.4-0.7,1.1-1.1
		c2.3-1.3,4.6-3.3,7.1-6c2.1-2.2,3.8-4.4,5-6.5c-2.1,0.5-4.4,1-6.9,1.7c-0.7,0-1.3-1.1-1.7-3.3c-0.3-1.6-0.4-2.5-0.4-2.9
		c0-0.8,0.6-1.1,1.7-1.1c2.3,0,5.2-0.4,8.6-1L154,399c0-0.6-0.1-1.3-0.4-2.1c0-0.3,0.2-0.6,0.5-0.9c0.5-0.3,1.3-0.5,2.6-0.5
		c0.8,0,1.9,0.2,3.1,0.6c0.9,0.5,1.4,0.9,1.4,1.2c0,0.2-0.1,0.6-0.4,1.2c-0.4,1-0.7,2.7-0.9,5.1c-0.1,1.9-0.2,3.8-0.3,5.5
		c2-0.5,4.1-1,6.3-1.6c1.5-0.5,2.5-0.8,3-0.9c0.6,0.2,0.9,1.2,1,2.9c-0.1,1.5-0.7,2.7-2,3.8c-3,0.9-5.8,1.6-8.4,2.1
		c-0.1,1.2-0.1,2.2-0.2,3.2c3.6,0.5,7.9,1.9,12.7,4c1.1,0.8,1.7,1.9,1.7,3.1c-0.4,4-1.2,6-2.4,6c-0.6-0.1-1.7-0.9-3.2-2.4
		c-2-1.9-4.9-4-8.9-6.2c-0.1,2.6-0.2,4.6-0.2,6c0,1.2,0,2.2,0.1,3c0.2,1.3,0.3,2.5,0.3,3.3v0.1c6.1,0.3,10.3,1.9,12.5,4.8
		c1.7,3.4,2.5,5.7,2.5,7c0,0.9-0.6,1.3-1.7,1.3c-0.4,0-1.1,0-2.2-0.1c-1.2,0-2.5-0.1-4-0.2c-1.2,0-2.9-0.1-5.1-0.3
		c0.1,0.1,0.1,0.1,0.1,0.2c-0.1,1.5-0.7,2.6-1.8,3.5c-2.3,1-4.3,1.6-6.2,1.9c-1.3,0.2-2.7,0.6-4.2,1.1c-0.2,3-0.4,5-0.4,5.9
		c0.7,0.4,1.4,0.7,2,1c2.3,1.2,5.1,2.3,8.3,3.4c3.4,0.8,9.4,2.1,18,3.8c3.9,2.1,5.9,3.5,5.9,4.2c-0.2,1.1-3.3,1.6-9.5,1.6
		c-2.4,0-6.9-0.2-13.6-0.5c-1.1,0-2-0.6-2.6-1.8c-1-1.7-2.5-2.8-4.4-3.3c-2.6-0.8-4.9-1.8-6.9-3.2c-3.6-2.1-8.4-4-14.7-5.7
		c-0.7-0.2-1.3-0.4-1.8-0.6c-0.5,0.6-1,1.3-1.5,1.8c-1.3,1.7-2.4,4.6-3.5,8.5c-3,1.9-5.8,2.8-8.6,2.8c-3-0.3-4.5-0.9-4.5-1.8
		c0-0.4,0.7-1,2-1.6c4-2.3,7.4-5.6,10.2-9.7c2.6-3.7,4.6-7.4,5.8-11c1.3-1.8,2.3-2.7,2.8-2.7c3,1.1,4.5,2.1,4.5,3.1
		c-0.8,1.5-1.7,3-2.8,4.6c0.7,0.4,1.5,0.9,2.4,1.6c2.4,1,4.6,2,6.5,2.8c0.2-3.8,0.3-9.4,0.4-16.6c-1,0.2-2,0.4-3.1,0.6
		c-7.9,1.7-12.9,3.3-14.8,4.7c-0.9,1.2-1.5,1.8-1.6,1.8c-0.8,0-1.5-0.6-2.2-1.8c-0.5-0.9-0.7-1.7-0.7-2.4c0-1.2,1.1-2,3.2-2.5
		c3.3-1.1,6.5-2.1,9.5-2.9c-0.5-0.2-1.2-0.5-2-0.9c-1.6-0.6-2.4-1.4-2.4-2.4c0-0.2,0.3-0.9,1-2c0-0.9,0-3.2,0.1-7l-8.8,8.5
		c-1.8,1.8-3,2.6-3.8,2.6c-0.5,0-1.2-0.3-2.1-0.9c-0.7-0.4-1-0.8-1-1.2c0-0.5,0.4-0.9,1.2-1.4c2.3-1.6,4.8-3.9,7.3-7.1
		c1.7-2.2,3.2-4.4,4.4-6.5c-2.2,0.4-4.5,1.1-7.1,2c-0.7,0-1.3-1.2-1.8-3.7c-0.4-1.8-0.6-2.9-0.6-3.3c0-1,0.6-1.5,1.8-1.5
		c2.7,0,6.2-0.4,10.5-1.1v-8.2l-0.8-6c0.2-0.8,0.7-1.4,1.5-1.7c0.8,0.1,2.3,0.7,4.4,1.7c1.9,1.1,2.9,2,2.9,2.5
		c0,0.2-0.3,0.4-0.8,0.8c-0.5,0.3-1.1,1-1.6,2.2c-0.3,1.6-0.6,4.2-0.8,7.9c1.1-0.2,2.3-0.5,3.6-0.7
		C140.8,411.5,141.7,411.2,142.1,411.2 M150.1,447.7c2.4-0.2,5.3-0.6,8.8-1.2c0.9-0.2,1.4-0.4,1.7-0.4c0.3,0,0.5,0.3,0.7,0.7
		c3-1.3,4.5-2.9,4.5-4.9c0-1.2-3-1.8-9.1-1.8c-1.8,0-3.6,0.1-5.4,0.3c-0.4,0.9-0.7,2-0.9,3.3C150.4,445.2,150.3,446.5,150.1,447.7"
		/>
	<path id="text3034" d="M246.9,404.2c0.5,0,1.1,0.9,1.8,2.5c0.5,2,1,3.5,1.7,4.4c1.5,2.6,2.3,4.6,2.3,6.1c0,0.8-0.3,1.3-0.8,1.7
		c-0.8,0.5-1.7,0.8-2.7,0.8c-1.6,0-3.3-0.7-5.1-2c-1.3-0.9-1.9-1.8-1.9-2.6c0-3.4,0.7-6.3,2.2-8.6
		C245.5,404.9,246.4,404.2,246.9,404.2 M240.2,424.9c0.8,0,1.5,0.4,2.2,1.3c0.8,0.8,1.8,1.4,3,2c0.8,0.5,1.1,1.2,1.1,2.2
		c0,0.6-0.3,1.2-1,1.7c-2,1.8-3.7,4.2-5.1,7.1c-1.3,3.1-1.9,5.9-1.9,8.4c0,2.1,0.4,4,1.2,5.7c1.3,1.5,3,2.3,5.1,2.3
		c0.7,0,1.7-1.3,3.1-3.8c2.5-5.2,4.2-10,5.2-14.4c0.4,0,0.6,0.5,0.6,1.5c0,4-0.5,7.9-1.4,11.7c-0.8,3.5-1.8,6.4-3,8.5
		c-1,1.6-1.8,3.3-2.5,5.1c-0.5,1.9-1.1,2.9-1.7,2.9c-1.6,0-3.6-1.4-5.9-4.3c-2.7-3.5-4-8.5-4-15.2c0-4.6,1.2-11.3,3.5-19.9
		C239.1,425.8,239.6,424.9,240.2,424.9 M295,417.8c-0.8,0-1.8,0-3,0.1c0,2,0.1,5.4,0.2,10.1v18.3l0.1,17.5c0.2,1.2,0.5,2.8,1.1,5
		c0,1.3-0.5,2-1.5,2c-0.1,0-0.5-0.1-1.4-0.4c-0.8-0.6-2.8-1.3-5.9-2.1c-3.4-0.8-7.1-2.5-11.3-5.1c-2.7-1.6-4.7-3.1-5.8-4.6
		c0.1-0.2,0.3-0.3,0.7-0.4c6,1.9,11.3,2.8,15.6,2.8c1.2-0.1,1.8-3.3,1.8-9.5c0-6-0.3-16.6-0.8-31.7c0-0.7-0.1-1.3-0.3-1.6
		c-2.4,0.2-5.1,0.4-8.1,0.6c-7.3,0.8-13.5,2.1-18.8,3.8c-0.5,0-1.3-0.6-2.2-1.9c-1.1-1.9-1.7-2.9-1.7-3.2c0-0.7,0.6-1.2,1.8-1.4
		c3.6-0.2,8.2-0.9,13.9-2.3c4.4-0.7,9.2-1.5,14.6-2.4c4.1-0.2,7.5-0.8,10.2-1.7c1.8-0.6,3.2-1,4.3-1c1.2,0,2.6,2.7,4.1,8
		c-0.1,0.9-0.8,1.3-2,1.3L295,417.8 M256.4,429.3l2,0.4c5.9-1.6,10.2-2.6,13.1-2.8c2.2-0.5,3.3-0.7,3.4-0.7c1,0,2.3,0.6,3.8,1.8
		c1.2,1.1,1.7,2.1,1.7,3.1c0,0.3-0.3,0.7-0.8,1.3c-0.6,0.9-1.8,4.2-3.5,10c-0.4,1.5-0.8,2.4-1.2,2.5c-0.8,0-1.6-0.4-2.5-1
		c-5.2,1-8.1,1.8-8.8,2.4c-0.6,0.4-1,0.5-1.4,0.5c-1.3-0.1-2.9-2.6-4.7-7.4c-1.5-4-2.2-6.6-2.2-7.9
		C255.3,430.1,255.7,429.3,256.4,429.3 M264.1,440.5c0.8,0,2.9-0.3,6.3-1c0.4-0.1,0.6-0.6,0.9-1.4c0.4-1.6,0.5-3.3,0.5-5
		c0-1.6-0.4-2.4-1-2.4c-1.2,0-2.7,0.3-4.7,1c-2.5,0.9-3.8,1.7-3.8,2.5C262.3,438.4,263,440.5,264.1,440.5"/>
	<path id="text3038" d="M642.2,463.5c-0.5,0-1-0.9-1.6-2.6c-0.5-2.1-1-3.6-1.8-4.5c-1.5-2.6-2.2-4.7-2.2-6.2c0-0.8,0.3-1.3,0.8-1.8
		c0.8-0.4,1.7-0.6,2.7-0.6c1.5,0,3.2,0.6,5,1.9c1.3,0.9,1.9,1.8,1.9,2.6c0,3.5-0.7,6.5-2.1,8.9C643.7,462.8,642.7,463.5,642.2,463.5
		 M649.5,442.5c-0.7,0-1.4-0.4-2.1-1.2c-0.8-0.6-1.8-1.3-3-1.8c-0.8-0.5-1.2-1.2-1.2-2.1c0-0.5,0.3-1,1-1.6c2-1.5,3.7-3.5,5.1-6.1
		c1.3-2.8,2-5.2,2-7.3c0-2-0.5-3.8-1.4-5.2c-1.2-1.4-2.8-2.1-4.9-2.1c-0.7,0-1.8,1.6-3.1,4.9c-2.6,6.8-4.3,13-5.2,18.8
		c-0.5,0-0.8-0.4-0.8-1.3c0-5,0.5-9.7,1.6-14.3c0.7-4.5,1.7-8,3-10.5c0.9-1.9,1.7-4,2.4-6.2c0.5-2.5,1.2-3.7,1.9-3.7
		c1.6,0,3.5,1.5,5.9,4.4c2.8,3.5,4.2,8.6,4.2,15.3c0,4.1-1.4,10-4.3,17.8C650.4,441.7,650.1,442.5,649.5,442.5 M598.6,458.5
		c1.3,0,3.5-0.1,6.5-0.3c0.8-1.4,1.7-2.8,2.7-4.3h-0.3c-0.7,0-1-1-1-3.1c0-0.5,0.6-1,1.7-1.4c1-0.2,2-0.3,3-0.4
		c-0.1-0.1-0.1-0.1-0.1-0.2c0.2-0.9,0.4-1.8,0.6-2.9c-1.6,0.2-3,0.3-4.3,0.4c-3.7,0.5-5.7,0.7-5.8,0.7c-1.2,0-2.7-0.6-4.5-1.8
		c-1.5-1.2-2.2-2.2-2.2-3.1c0-0.2,0.4-0.5,1.1-1c0.9-0.6,2.4-3.1,4.6-7.5c0.5-1.2,1-1.8,1.6-2c0.8,0,1.7,0.2,2.8,0.7
		c3.1-0.3,5.8-0.6,8-0.9c0.1-1.3,0.2-2.5,0.3-3.8c-3.4,0.4-7.3,0.9-11.9,1.6c-0.7,0-1-1.2-1-3.5c0-0.6,0.6-1.1,1.8-1.5
		c4.6-0.8,8.6-1.4,12-1.8c0.2-1.5,0.5-2.9,0.7-4c-2.3,0.3-4.8,0.6-7.3,1c-4,0.2-7.4,0.6-10.2,1.2c-1.8,0.6-3.2,0.9-4.2,0.9
		c-0.9,0-1.9-2.2-3.2-6.6c0.1-0.5,0.7-0.7,1.8-0.7l4.5,0.4c2.5,0,7.3-0.2,14.7-0.6c-1.3-1.1-3.4-3.2-6.4-6.2
		c-1.8-1.9-4.8-3.6-8.9-5.2c-4.2-1.6-6.7-2.8-7.4-3.8c0-0.9,2.1-1.4,6.2-1.4c2.8,0,5.2,0.1,6.9,0.2c1.5,0.2,2.4,0.6,2.6,1.3
		c0.3,1.2,1.3,2.3,2.9,3.5c1.8,1.4,3.4,2.9,4.8,4.4c1.3,1.5,2.7,2.6,4.1,3.3c0.7,0.4,1.1,0.8,1.3,1.3c0.8-1.6,1.6-3,2.5-4
		c1.3-1.7,2.1-3.5,2.4-5.3c2.7-2,5.5-3.6,8.2-4.7c2.1-0.4,3.9-0.6,5.4-0.6c1.9,0,2.8,0.2,2.8,0.7c0,0.1-0.7,0.6-2,1.4
		c-4.8,2.6-8.5,5.5-11.3,8.8c-1.3,1.5-2.3,3.3-3.1,5.4c4.4-0.5,8.4-1.1,12-1.9c0.4,0,0.9,0.5,1.6,1.5c0.8,1.5,1.2,2.4,1.2,2.6
		c0,0.4-0.4,0.6-1.1,0.7c-3.5,0.1-8.1,0.7-13.7,1.7c-0.5,0.1-1,0.2-1.5,0.3c-0.2,1.2-0.4,2.5-0.6,3.9c0,0.1,0,0.2-0.1,0.3
		c2.3-0.3,4.8-0.7,7.5-1.2c0.6,0,1.1,0.6,1.7,1.9c0.3,0.9,0.5,1.8,0.5,2.7c0,0.5-0.4,0.7-1.1,0.7c-1.4,0.1-4.5,0.4-9.3,0.9
		c-0.1,1.2-0.2,2.4-0.3,3.7c2.3-0.3,3.8-0.6,4.5-0.9c1.2-0.4,2.1-0.5,2.7-0.5c1.2,0.1,2.7,2,4.5,5.9c1.5,3.3,2.2,5.4,2.2,6.5
		c0,1.2-0.4,1.8-1.1,1.8l-2-0.4c-4,0.8-7.5,1.5-10.6,1.9l0.1,3c0.3-0.1,0.7-0.1,1-0.2v-0.2c0-0.4,0.7-0.7,2.2-0.8
		c0.9,0,2.1,2.1,3.5,6.4c0.2,0.7,0.4,1.4,0.6,2.1c2-0.6,3.9-1.2,5.6-1.8c0.6,0,1.3,0.7,2.1,2c0.9,1.8,1.4,2.9,1.4,3.3
		c0,0.5-0.4,0.9-1.3,1c-1.9,0.1-4.2,0.3-6.8,0.6c0.3,2.3,0.4,4.5,0.4,6.7c0,0.9-0.5,1.3-1.7,1.3c-0.5,0-1.7-0.3-3.5-0.8
		c-1.3-0.5-2.1-1-2.2-1.6c0.3-1.8,0.5-3.3,0.6-4.5c-3.6,0.5-7.6,1.1-11.9,1.7c-0.5,1.9-1,3.8-1.6,5.9c-0.6,1.6-1.3,2.4-2.2,2.4
		c-0.5,0-1.6-0.5-3.3-1.4c-1.5-1-2.2-1.8-2.2-2.1c0-0.2,0.2-0.5,0.7-1c0.6-0.4,1.3-1.5,2-3.2c-1.2,0.2-2.2,0.4-3.1,0.6
		c-1.6,0.5-2.9,0.8-3.8,0.8c-0.9,0-2-2.2-3.2-6.5c0.1-0.5,0.6-0.8,1.7-0.8L598.6,458.5 M620.5,452.4c-1.8,0.2-4.9,0.5-9.3,1.1
		c-0.2,1.2-0.5,2.6-0.9,4.3c1.5-0.1,3-0.3,4.7-0.4c2-0.2,4-0.5,5.8-0.8C620.7,455.4,620.6,454,620.5,452.4 M624.4,434.1
		c-1,0-3,0.1-5.8,0.4v5l0.1,2c4.8-0.9,7.2-1.7,7.2-2.5C625.8,435.8,625.3,434.1,624.4,434.1 M612,442.5c0.2-1.6,0.3-3.3,0.4-5.2
		c0.1-0.7,0.1-1.4,0.2-2c-1.6,0.2-3.3,0.4-5.2,0.6c-0.6,0.1-1.2,0.4-1.6,1c-0.6,1.2-1,2.4-1,3.6c0,1.6,0.5,2.4,1.5,2.4
		C607.9,442.8,609.8,442.7,612,442.5"/>
	<path id="text3042" d="M525.2,463.9l-2.4-0.4c-12.7,2.3-22.2,3.7-28.5,4c-4.8,0.5-7.3,0.8-7.5,0.8c-1.7,0-3.8-0.6-6.1-1.8
		c-1.9-1.2-2.9-2.3-2.9-3.3c0-0.6,0.5-1.3,1.6-2.3c1.4-1.6,3.8-7.1,7.1-16.6c0.8-2.5,1.7-3.9,2.5-4.2c1,0,2.1,0.4,3.4,1
		c0.9-0.1,1.8-0.2,2.6-0.4c-1-0.8-2.2-1.6-3.7-2.3c-2.1-1.5-4.3-3.3-6.4-5.4c-1.6-1.9-3.6-3.7-6.1-5.3c-4.5-3.2-8.9-5.8-13.1-7.7
		c-1.9-0.8-3.4-2-4.5-3.5c0-0.9,2-1.4,6-1.4c4.4,0,8.7,0.3,12.9,0.9c1.9,0.2,3,1,3.3,2.4c0.4,4.3,2.1,8,5.1,11.1
		c4.3,4.5,7.4,6.8,9.3,7c2.6,0.3,3.8,1,3.8,2c0,0.4,0,0.7-0.1,1.1c1.4-0.2,2.6-0.4,3.8-0.5c-0.1-0.1-0.2-0.2-0.2-0.3
		c0-0.4,0.4-1,1.3-1.6c3.2-2.8,6-5.4,8.4-7.7c-1.2-0.1-2.9-0.4-5.1-0.9c-1.6-0.4-2.4-1-2.4-1.7c0-0.4,0.2-0.9,0.5-1.4
		c0.6-1.3,1.7-5.8,3.2-13.7l-0.4-2.5c1.2-2.7,3.1-5,5.8-6.7c1.6-1.5,4.5-2.6,8.6-3.6c0.8,0,1.1,0.2,1.1,0.7
		c-1.7,1.4-3.7,3.3-5.9,5.7c-2.2,2.3-3.6,4.8-4.3,7.5c-0.4,2.5-0.6,5.9-0.6,10.1c0,0.9,0.2,2,0.7,3.3c0.2,0.5,0.3,1,0.4,1.3
		c2.6-2.7,4.8-5.1,6.5-7.1c1-0.9,1.6-1.9,1.8-3c0.2-0.7,1.3-1.5,3.3-2.4c2.9-1.5,6.4-2.2,10.4-2.2c1.6,0,2.5,0.4,2.5,1.1
		c-5.9,3-11.2,6.9-15.8,11.8c-3.7,3.6-6.9,7.2-9.4,10.7c0.4-0.1,0.8-0.2,1-0.2c1.9,0.1,4.1,4.1,6.7,12c2.1,6.4,3.1,10.7,3.1,13
		C526.6,463.2,526.2,463.9,525.2,463.9 M514.7,443.6c-1.2,0-3.3,0.3-6.5,0.8c0.1,1.5,0.2,3.3,0.3,5.5c1.3-0.2,2.7-0.5,4.2-1
		c0.6,0,1.1,1.1,1.6,3.3c0.3,1.6,0.4,2.5,0.4,3c0,0.7-0.6,1-1.8,1c-1.3,0-2.7,0.1-4.3,0.3c0.1,1.7,0.1,3.4,0.1,5.2
		c6-1,9.1-2.1,9.1-3.1C517.6,448.6,516.6,443.6,514.7,443.6 M501.5,462.9c0.1-0.9,0.2-2,0.3-3.2v-2.4c-1.2,0.2-2.4,0.3-3.8,0.5
		c-1.1,0.2-1.8,0.4-2.2,0.4c-0.6-0.2-0.9-1-1-2.4c0.1-1.5,0.7-2.6,1.8-3.5c1.9-0.6,3.6-1,5.3-1.4c0.1-2.4,0.2-4.3,0.2-5.7
		c-1.9,0.3-4,0.6-6.3,1c-1.3,0.2-2.2,1.3-2.9,3.2c-1.3,3.5-2,7.2-2,11.1c0,1.9,0.7,2.9,2.2,2.9C495.4,463.5,498.2,463.3,501.5,462.9
		 M496.3,431.7c-1,0-2.1-0.2-3.5-0.7c-1-0.5-1.5-1-1.5-1.3c0-0.2,0.1-0.6,0.4-1.2c0.4-0.9,0.7-2.5,1-4.6c0.6-11.6,0.9-19.3,0.9-23.2
		c0-1.1,0-2.1-0.1-2.9c-0.2-1.2-0.3-2.2-0.3-3c0.1-0.7,0.7-1,2-1c2.3,0,3.6,0.4,3.8,1c0,0.6-0.1,1.1-0.3,1.5c0,0.5-0.1,1.2-0.1,2
		l0.7,29.7c0,0.6,0.3,1.4,0.8,2.2c0,0.4-0.3,0.7-0.8,1C498.8,431.5,497.7,431.7,496.3,431.7"/>
	<g id="g3611">
		<g id="g3274">
			<path id="path3260" class="st3" d="M187.8,543.9v23.2h-23.6"/>
			<path id="path3264" class="st3" d="M224.8,567.2h-23.2v-23"/>
			<path id="path3266" class="st3" d="M201.2,603.6v-23.2h23.6"/>
			<path id="path3268" class="st3" d="M164.3,580.3h23.2v23"/>
		</g>
		<g id="g3290" transform="translate(-.59649)">
			<path id="path3270" class="st3" d="M47.8,567.2H24.5v-23"/>
			<path id="path3272" class="st3" d="M24.2,603.6v-23.2h23.6"/>
		</g>
		<g id="g3280" transform="translate(-88.5 92.616)">
			<path id="path3282" class="st3" d="M187.8,543.9v23.2h-23.6"/>
			<path id="path3284" class="st3" d="M224.8,567.2h-23.2v-23"/>
			<path id="path3286" class="st3" d="M201.2,603.6v-23.2h23.6"/>
			<path id="path3288" class="st3" d="M164.3,580.3h23.2v23"/>
		</g>
		<g id="g3294" transform="translate(446.61 92.616)">
			<path id="path3296" class="st3" d="M187.8,543.9v23.2h-23.6"/>
			<path id="path3298" class="st3" d="M224.8,567.2h-23.2v-23"/>
			<path id="path3300" class="st3" d="M201.2,603.6v-23.2h23.6"/>
			<path id="path3302" class="st3" d="M164.3,580.3h23.2v23"/>
		</g>
		<g id="g3304" transform="translate(179.34 .62834)">
			<path id="path3306" class="st3" d="M187.8,543.9v23.2h-23.6"/>
			<path id="path3308" class="st3" d="M224.8,567.2h-23.2v-23"/>
			<path id="path3310" class="st3" d="M201.2,603.6v-23.2h23.6"/>
			<path id="path3312" class="st3" d="M164.3,580.3h23.2v23"/>
		</g>
		<g id="g3314" transform="translate(357.25 .62834)">
			<path id="path3316" class="st3" d="M187.8,543.9v23.2h-23.6"/>
			<path id="path3318" class="st3" d="M224.8,567.2h-23.2v-23"/>
			<path id="path3320" class="st3" d="M201.2,603.6v-23.2h23.6"/>
			<path id="path3322" class="st3" d="M164.3,580.3h23.2v23"/>
		</g>
		<g id="g3324" transform="matrix(-1 0 0 -1 747.63 1147.7)">
			<path id="path3326" class="st3" d="M47.8,567.2H24.5v-23"/>
			<path id="path3328" class="st3" d="M24.2,603.6v-23.2h23.6"/>
		</g>
	</g>
	<g id="g3644" transform="matrix(-1 0 0 -1 747.03 870.63)">
		<g id="g3646">
			<path id="path3648" class="st3" d="M187.8,543.9v23.2h-23.6"/>
			<path id="path3650" class="st3" d="M224.8,567.2h-23.2v-23"/>
			<path id="path3652" class="st3" d="M201.2,603.6v-23.2h23.6"/>
			<path id="path3654" class="st3" d="M164.3,580.3h23.2v23"/>
		</g>
		<g id="g3656" transform="translate(-.59649)">
			<path id="path3658" class="st3" d="M47.8,567.2H24.5v-23"/>
			<path id="path3660" class="st3" d="M24.2,603.6v-23.2h23.6"/>
		</g>
		<g id="g3662" transform="translate(-88.5 92.616)">
			<path id="path3664" class="st3" d="M187.8,543.9v23.2h-23.6"/>
			<path id="path3666" class="st3" d="M224.8,567.2h-23.2v-23"/>
			<path id="path3668" class="st3" d="M201.2,603.6v-23.2h23.6"/>
			<path id="path3670" class="st3" d="M164.3,580.3h23.2v23"/>
		</g>
		<g id="g3672" transform="translate(446.61 92.616)">
			<path id="path3674" class="st3" d="M187.8,543.9v23.2h-23.6"/>
			<path id="path3676" class="st3" d="M224.8,567.2h-23.2v-23"/>
			<path id="path3678" class="st3" d="M201.2,603.6v-23.2h23.6"/>
			<path id="path3680" class="st3" d="M164.3,580.3h23.2v23"/>
		</g>
		<g id="g3682" transform="translate(179.34 .62834)">
			<path id="path3684" class="st3" d="M187.8,543.9v23.2h-23.6"/>
			<path id="path3686" class="st3" d="M224.8,567.2h-23.2v-23"/>
			<path id="path3688" class="st3" d="M201.2,603.6v-23.2h23.6"/>
			<path id="path3690" class="st3" d="M164.3,580.3h23.2v23"/>
		</g>
		<g id="g3692" transform="translate(357.25 .62834)">
			<path id="path3694" class="st3" d="M187.8,543.9v23.2h-23.6"/>
			<path id="path3696" class="st3" d="M224.8,567.2h-23.2v-23"/>
			<path id="path3698" class="st3" d="M201.2,603.6v-23.2h23.6"/>
			<path id="path3700" class="st3" d="M164.3,580.3h23.2v23"/>
		</g>
		<g id="g3702" transform="matrix(-1 0 0 -1 747.63 1147.7)">
			<path id="path3704" class="st3" d="M47.8,567.2H24.5v-23"/>
			<path id="path3706" class="st3" d="M24.2,603.6v-23.2h23.6"/>
		</g>
	</g>
	<path id="path3708" class="st3" d="M282.6,18.6l178.5,184.9"/>
	<path id="path3710" class="st3" d="M283.4,203.5L461.2,19"/>
	<path id="path3712" class="st3" d="M284.2,668L464,850.8"/>
	<path id="path3714" class="st3" d="M285.8,849.5l176.1-181.1"/>
	<path id="text3716" d="M-8,496.2c-0.5,0-1.2,0.1-2.3,0.2c-0.2,0.5-0.4,1-0.7,1.6c-0.4,0.9-0.6,1.3-0.7,1.3c-0.2,0-0.3-0.3-0.4-0.8
		c0.1-0.7,0.2-1.3,0.3-1.9c-0.5,0.1-1,0.2-1.5,0.3c-0.3,0.1-0.7,0.1-1,0.2c0.1,0.6,0.2,1.3,0.4,2c0,0.2-0.3,0.3-0.8,0.4
		c-0.3,0-0.6-0.7-1-1.9c-1,0.3-2,0.8-2.9,1.4c-0.2,0-0.4-0.3-0.7-1c-0.3-0.9-0.5-1.5-0.5-1.6c0-0.3,0.2-0.6,0.6-0.7
		c0.8,0,1.8-0.2,3-0.5c-0.3-1.7-0.4-3.3-0.4-5c0-0.4,0.2-0.6,0.5-0.6c0.2,0,0.5,0.1,1.1,0.4c0.4,0.3,0.7,0.5,0.7,0.8
		c-0.2,1.3-0.3,2.3-0.3,3c0,0.3,0,0.6,0.1,1c1-0.2,2.1-0.4,3.3-0.7c0.4-2.1,0.9-4.1,1.3-5.9c0.1-0.7,0.3-1.1,0.6-1.1
		c1.3,0.8,2,1.5,2,2c0,0.1-0.1,0.2-0.2,0.4c-0.2,0.4-0.7,1.5-1.4,3.3c0,0.2-0.1,0.5-0.3,0.9c0.4-0.1,0.7-0.2,1-0.3
		c0.5-0.2,0.9-0.4,1.2-0.4c0.3,0,0.6,1,1,2.9c0,0.4-0.2,0.7-0.5,0.7L-8,496.2 M-19.4,501.7h0.5c1.4-0.6,2.4-1,3.1-1.1
		c0.5-0.2,0.8-0.3,0.8-0.3c0.2,0,0.5,0.2,0.9,0.7c0.3,0.5,0.5,0.9,0.5,1.3c0,0.1-0.1,0.3-0.2,0.5c-0.2,0.3-0.5,1.4-0.9,3.3
		c-0.1,0.5-0.2,0.8-0.3,0.9c-0.2,0-0.3-0.1-0.6-0.2c-0.2,0.1-0.3,0.1-0.5,0.2c0.1,0.1,0.3,0.2,0.5,0.4c0.4,0.4,0.5,0.6,0.5,0.7
		c0,0.1-0.1,0.3-0.3,0.6c-0.5,0.7-0.9,1.4-1.3,1.9c0.2,0,0.3,0.1,0.4,0.2c0.1-0.3,0.2-0.5,0.5-0.7c0.9-0.2,1.8-0.4,2.6-0.6
		c-0.1-0.1-0.2-0.1-0.3-0.2c-0.3-0.3-0.4-0.7-0.4-1.1c0-0.3,0.2-0.9,0.5-1.7c0.2-0.5,0.4-0.8,0.5-0.9c-0.1-0.4-0.2-0.8-0.3-1.4
		c-0.3-1.5-0.4-2.6-0.4-3.1c0-0.5,0.1-0.8,0.3-0.8h0.5c1.4-0.7,2.5-1.1,3.2-1.2c0.5-0.2,0.8-0.3,0.8-0.3c0.3,0,0.6,0.2,1,0.7
		c0.3,0.5,0.5,1,0.5,1.3c0,0.1-0.1,0.3-0.2,0.5c-0.2,0.3-0.5,1.7-1,4c-0.1,0.6-0.2,0.9-0.4,1c-0.1,0-0.3-0.1-0.5-0.4
		c-1.4,0.4-2.2,0.7-2.3,0.9C-11.9,507-12,507-12,507c-0.1,0-0.1,0-0.2-0.1c0.1,0.5,0.3,0.9,0.5,1.2c0.2,0.3,0.4,0.6,0.4,1.1
		c2-0.5,3.1-0.7,3.3-0.8c0.3,0.1,0.4,0.5,0.4,1.3c0,0.4-0.2,0.7-0.5,0.8c-0.7,0.1-1.6,0.3-2.5,0.7c-0.2,0.1-0.3,0.1-0.5,0.2
		c0,0.4,0,1-0.1,1.8v0.1c1.6-0.4,2.5-0.7,2.6-0.7c0.3,0.1,0.4,0.6,0.4,1.5c0,0.4-0.2,0.7-0.7,0.8c-0.6,0.1-1.3,0.3-2.1,0.6
		c0,0-0.1,0-0.2,0c0,0.7-0.1,1.2-0.1,1.7c1.8-0.4,2.8-0.7,2.9-0.7c0.3,0.1,0.4,0.5,0.4,1.4c0,0.4-0.2,0.7-0.7,0.8
		c-0.6,0.1-1.4,0.2-2.2,0.5c-0.2,0-0.3,0.1-0.4,0.1c0,0.8,0,1.5,0,1.9c0.1,0,0.2,0,0.3,0c0.8-0.1,1.5-0.2,2.1-0.4
		c0.4-0.2,0.6-0.3,0.9-0.3c0.2,0,0.5,0.8,0.8,2.5c0,0.3-0.1,0.4-0.4,0.4h-1.2c-0.5,0-1.8,0.1-3.7,0.3c-1.5,0.2-2.7,0.6-3.7,1.1
		c0,2,0,3.3,0,4.1c0,0.4-0.4,0.6-1.1,0.6c-0.6,0-0.9-0.1-0.9-0.4c0.2-2.8,0.4-8.3,0.5-16.5c-0.4,0.7-0.8,1.4-1,1.9
		c-0.2,0.3-0.4,0.7-0.4,1.1c0,0.2-0.3,0.5-0.7,0.8c-0.6,0.5-1.3,0.8-2.2,0.8c-0.4,0-0.6-0.1-0.6-0.4c1.2-1.1,2.3-2.5,3.3-4.3
		c1.1-1.8,1.9-3.5,2.5-5.2c0,0,0,0,0,0c-0.2,0.1-0.4,0.2-0.4,0.3c-0.1,0.1-0.2,0.2-0.3,0.2c-0.4,0-0.8-0.9-1.4-2.6
		c-0.4-1.4-0.6-2.3-0.6-2.8C-19.6,501.9-19.6,501.7-19.4,501.7 M-16.3,522.3c0.6-0.1,1.4-0.3,2.3-0.6c0.2,0,0.5-0.1,0.7-0.1
		c0-0.5,0-1.2,0-1.9c-0.7,0.1-1.4,0.3-2.2,0.6c-0.2,0-0.4-0.5-0.4-1.4c0-0.4,0.2-0.6,0.6-0.8c0.7-0.2,1.4-0.3,2.1-0.5v-1.6
		c-0.7,0.1-1.4,0.4-2.2,0.7c-0.2,0-0.4-0.5-0.4-1.5c0-0.4,0.2-0.6,0.6-0.8c0.8-0.2,1.5-0.4,2.1-0.6v-2c-0.8,0.1-1.7,0.4-2.5,0.7
		c-0.2,0-0.3-0.2-0.4-0.6c0,0.6,0,1.4-0.1,2.3C-16.2,517.4-16.2,520.1-16.3,522.3 M-17.3,505.8c0.2,0,0.6-0.2,1.2-0.6
		c0.1,0,0.2-0.2,0.3-0.5c0.1-0.5,0.1-1.1,0.1-1.6c0-0.7-0.1-1.1-0.3-1.1c-0.2,0-0.6,0.2-1,0.5c-0.5,0.3-0.8,0.7-0.8,1
		C-17.8,505-17.6,505.8-17.3,505.8 M-11.7,504.5c0.2,0,0.7-0.1,1.6-0.4c0.1,0,0.3-0.2,0.4-0.5c0.1-0.6,0.2-1.3,0.2-1.9
		c0-0.6-0.1-1-0.4-1c-0.2,0-0.6,0.1-1,0.4c-0.6,0.4-0.9,0.7-0.9,1C-11.8,503.7-11.7,504.5-11.7,504.5 M-5.5,497c0.2,0,0.5,0,0.7,0.1
		c0.2-0.1,0.5-0.2,0.8-0.3c2.1-1,3.8-1.5,4.9-1.5c0.5,0,1.2,0.3,2,0.8c0.6,0.4,0.9,0.9,0.9,1.2c0,0.4-0.1,0.9-0.3,1.7
		c-0.2,1.2-0.6,6.5-1.1,15.9c0,0.1-0.3,0.2-1,0.2c-0.7,0-1-0.1-1-0.4c0-0.4,0-0.9,0-1.3c-1,0.1-2.1,0.4-3.2,0.7
		c0.3,0.2,0.4,0.5,0.5,0.8c0,0.5-0.9,2.8-2.4,6.7c-0.4,1-0.7,2.4-1,4.2c-0.3,1-1,1.8-2.3,2.2c-0.9,0.2-1.7,0.4-2.3,0.4
		c-0.3,0-0.5-0.1-0.5-0.4c2.3-2.2,3.9-4.8,5-7.8c0.8-2.1,1.2-3.9,1.3-5.3c-0.1,0.1-0.2,0.1-0.3,0.2c-0.3,0.3-0.5,0.5-0.7,0.5
		c-0.2,0-0.3-0.2-0.6-0.7c-0.2-0.3-0.2-0.7-0.2-1.2c0-1.7,0-3.9,0-6.8c0.1-2.4,0.1-4.9,0.1-7.6c0-0.3,0-0.6-0.1-1
		c0-0.3-0.1-0.5-0.1-0.6C-6.2,497.3-6,497-5.5,497 M0.6,510.7c0.1-3.9,0.2-7.5,0.2-10.9c0-1.5-0.4-2.3-1-2.3c-1,0-2.2,0.6-3.7,1.9
		c0,0.7-0.1,1.5-0.2,2.4v0c0.8-0.2,2.1-0.5,3.8-1c0.2,0,0.2,0.5,0.2,1.4c0,0.3-0.2,0.5-0.5,0.7c-0.9,0.5-1.6,0.9-2.2,1.1
		c-0.4,0.1-0.9,0.4-1.5,0.8c0,0.8,0,1.6-0.1,2.3c0.8-0.2,2.1-0.7,4-1.4c0.2,0,0.2,0.5,0.2,1.6c0,0.2-0.2,0.4-0.5,0.6
		c-0.9,0.6-1.6,1-2.2,1.2c-0.4,0.1-1,0.4-1.7,0.9c0,0.4,0,0.7,0,0.9c0,0.7,0.1,1.1,0.3,1.1c0.2,0,0.7-0.1,1.4-0.3
		C-1.1,511,0,510.7,0.6,510.7 M-0.7,514.8c0.6,0,1,0.2,1.2,0.6c0,0.3-0.2,1.2-0.5,2.8c-0.2,1.4-0.3,2.5-0.3,3.4c0,1.4,0.1,2.4,0.4,3
		c0.4,0.6,1,1,1.8,1c1.5,0,2.5-0.4,3.1-1.2c0.4-0.7,0.6-1.7,0.6-3.3l-0.2-5c0-0.3,0-0.4,0.1-0.4c0.2,0,0.6,0.9,1.1,2.8
		c0.6,2.7,0.9,4.8,1,6.4c0.1,0.8,0.1,1.5,0.1,1.9c0.1,0.3,0.1,0.5,0.1,0.7c0,0.4-0.2,0.6-0.5,0.6c-0.8,0.2-1.7,0.4-2.8,0.7
		c-0.7,0.2-1.4,0.3-2.2,0.3c-1.2,0-2.2-0.7-3.1-2c-0.8-1.3-1.1-3.1-1.1-5.6c0-1.9,0.1-3.8,0.4-5.7C-1.5,515.1-1.2,514.8-0.7,514.8
		 M-11.1,551.5c0.2,0.1,0.4,0.6,0.4,1.4c0,0.9-0.3,1.6-0.8,2.3c-0.9,0.6-1.7,1.2-2.6,1.6c0,0.5,0,1.1,0,1.6c1,0.2,2.1,0.9,3.4,1.9
		c0.3,0.3,0.5,0.8,0.5,1.4c-0.2,2.3-0.5,3.4-0.9,3.4c-0.2-0.1-0.5-0.4-0.9-1.1c-0.5-1-1.2-2-2.2-3.1v1.2c0,9.5,0.1,15.9,0.4,19.2
		c0,0.8-0.2,1.2-0.7,1.2c-0.1,0-0.4-0.2-1.1-0.7c-0.6-0.3-0.9-0.8-0.9-1.5c0-0.2,0.1-1,0.3-2.3c0-1.5,0-6.3,0.1-14.4l-4.3,7
		c-0.9,1.5-1.6,2.3-1.9,2.3c-0.2,0-0.4-0.1-0.8-0.4c-0.2-0.2-0.3-0.4-0.3-0.7c0-0.4,0.2-0.7,0.5-1.1c1.2-1.4,2.4-3.4,3.6-6.1
		c1.1-2.3,2-4.6,2.7-6.9c-1.1,0.4-2.3,1.1-3.7,2.1c-0.3,0-0.6-0.8-0.8-2.5c-0.2-1.2-0.3-1.9-0.3-2.2c0-0.6,0.3-0.9,0.8-0.9
		c1.1-0.1,2.6-0.4,4.4-0.9v-9.3l-0.2-3.5c0-0.6,0.3-1,0.6-1.3c0.3,0.1,0.9,0.4,1.7,1.1c0.7,0.6,1.1,1.2,1.1,1.6
		c0,0.2-0.1,0.5-0.3,0.8c-0.2,0.4-0.4,1.2-0.6,2.4c-0.1,1.6-0.2,4.1-0.3,7.5c0.6-0.2,1.1-0.5,1.7-0.7
		C-11.7,551.7-11.3,551.5-11.1,551.5 M3.1,549c0.3,0,0.4,0.8,0.4,2.3c0,0.3-0.3,0.5-0.8,0.8c-0.7,0.3-1.4,0.5-2,0.8
		c-0.3,6.7-0.4,11.3-0.5,13.8c1.6-0.2,3-0.4,4.4-0.6c0.4-0.2,0.9-0.2,1.4-0.2c0.1,0.6,0.3,1.2,0.5,1.7c0.3,0.9,0.5,1.8,0.5,2.5
		c-0.1,0.5-0.2,0.8-0.4,0.9c-0.1,0-0.5-0.2-1.2-0.6c-0.8-0.5-1.4-0.7-2-0.7c-2.2,0-5.2,0.2-9,0.7c-3.3,0.4-5.8,0.9-7.5,1.5
		c-0.3,0-0.6-1.1-0.9-3.2l0.5-0.4h0.9c1.6-0.2,3.1-0.4,4.5-0.6c0-5.2-0.1-9.4-0.2-12.7c-0.4,0.1-0.8,0.3-1.2,0.4
		c-0.2,0-0.5-0.4-0.7-1.2c-0.2-0.6-0.2-1.2-0.2-1.7c0-0.4,0.2-0.6,0.6-0.6c0.3,0,0.8-0.1,1.5-0.2c-0.1-1.7-0.2-3-0.3-3.9
		c-0.1-1-0.2-1.8-0.3-2.5c0-0.4,0.5-0.6,1.6-0.6c0.8,0,1.2,0.3,1.2,1c0,1.7,0,3.6,0,5.5c1.2-0.3,2.6-0.6,4.3-1c0-2.7,0.1-5.7,0.1-9
		c0-0.5,0.3-0.8,1-0.8c1.4,0,2.1,0.4,2.1,1.2c-0.3,1.1-0.4,2.6-0.5,4.6c-0.1,1.2-0.1,2.3-0.2,3.4C1.6,549.3,2.3,549.2,3.1,549
		 M-5.8,567.3c1.3-0.1,2.6-0.3,3.8-0.5c0.1-3,0.2-7.5,0.3-13.4c-0.8,0.2-1.4,0.3-2,0.4c-0.7,0.1-1.4,0.2-2.2,0.4c0,0.8,0,1.7,0,2.5
		c0.7-0.1,1.8-0.4,3.1-0.7c0.2,0,0.3,0.7,0.3,2.1c0,0.2-0.2,0.4-0.7,0.6c-0.7,0.4-1.3,0.6-1.8,0.7c-0.3,0.1-0.6,0.2-1,0.3
		c0,0.7,0,1.4,0,2.1c0.7-0.2,1.7-0.5,3.1-0.9c0.2,0,0.3,0.7,0.3,2c0,0.2-0.2,0.5-0.7,0.7c-0.7,0.3-1.3,0.6-1.7,0.7
		c-0.3,0-0.6,0.1-1,0.3C-5.8,565.6-5.8,566.5-5.8,567.3 M-6.2,571.5c0.3,0,0.5,0.1,0.5,0.4c-0.8,2.2-1.3,3.6-1.5,4.4
		c-0.2,0.8-0.4,1.6-0.6,2.2c-0.2,0.6-0.3,1.2-0.4,1.8c-0.1,0.5-0.2,0.8-0.4,0.8c-0.4,0-0.8-0.5-1.3-1.6c-0.7-1.2-1-2-1-2.5
		c0-0.2,0.2-0.5,0.5-0.7c0.4-0.3,0.8-0.8,1.1-1.3C-8.8,574.3-7.8,573.1-6.2,571.5 M-1.7,571.3c0.2,0,1.3,0.6,3.1,1.9
		c0.6,0.5,1.1,0.8,1.5,1c0.2,0.3,0.4,1.6,0.4,3.7c0,0.6-0.1,1.3-0.4,2.2c-0.2,0.7-0.4,1.1-0.6,1.1c-0.2,0-0.4-0.3-0.5-0.8
		c-1-2.8-2-5.2-3.2-7.3c-0.4-0.5-0.5-0.9-0.6-1.2C-2,571.5-1.9,571.3-1.7,571.3 M-1.3,601.6c-1,0-2.2,0.1-3.5,0.2
		c-0.1,0.2-0.2,0.4-0.3,0.7c-0.5,0.9-0.8,2.2-1,4c-0.6,10.1-1,16.8-1,20.2c0,0.9,0,1.7,0.1,2.5c0.1,1,0.2,1.8,0.2,2.5
		c-0.1,0.5-0.5,0.8-1.2,0.8c-1.2,0-1.9-0.4-2-1.2c0-0.4,0-0.8,0.1-1c0-0.4,0-0.9,0-1.5v-18.9l-7.2,10.7c-1.5,2.2-2.6,3.3-3.2,3.3
		c-0.3,0-0.7-0.3-1.3-0.8c-0.4-0.4-0.5-0.8-0.5-1.3c0-0.5,0.3-1,1-1.6c2-1.9,4.1-4.6,6.3-8.3c1.9-3.1,3.4-6.3,4.5-9.4
		c-3.2,0.6-5.5,1.4-7.2,2.3c-0.4,0-0.8-1.6-1.3-4.9l0.8-0.2h1.3c6.9-1.4,12.7-2.6,17.4-3.5c0.4-0.3,0.9-0.4,1.5-0.4
		c0.2,0.9,0.5,1.7,0.8,2.6c0.5,1.3,0.7,2.5,0.8,3.6c-0.1,0.8-0.3,1.2-0.5,1.3c-0.2,0-0.7-0.3-1.7-0.8C0.6,601.9-0.4,601.6-1.3,601.6
		 M-5.1,610.4c1.6,1,3,1.7,4.4,2.4c1.4,0.7,3,1.9,4.8,3.6c0.2,0.5,0.3,1.1,0.3,1.6c-0.3,3.9-0.9,5.8-1.6,5.8c-0.2,0-0.5-0.3-0.6-1
		c-1-2.3-3.5-6.3-7.5-11.9C-5.4,610.5-5.3,610.4-5.1,610.4 M-15.5,645.6c0.3,0.2,0.6,0.8,0.8,1.7c0.3,0.9,0.8,1.7,1.4,2.6
		c0.6,1,0.9,2.1,0.9,3.1c-0.1,0.8-0.4,1.3-0.9,1.3c-0.9-0.5-1.7-0.8-2.4-1c-0.7-0.2-1.1-1.1-1.1-2.7c0-1.5,0.2-2.8,0.5-3.8
		C-16.1,646.1-15.8,645.7-15.5,645.6 M-10.6,655.5c0.2,0,0.4,0.7,0.4,2c0,0.3-0.2,0.6-0.6,0.8c-2.2,1.1-4.1,1.7-5.6,2
		c-1.3,0.2-2.9,0.8-4.8,1.7c-0.3,0-0.6-0.4-0.8-1.3c-0.2-0.7-0.2-1.4-0.2-2c0-0.4,0.2-0.6,0.5-0.6C-20.7,658-16.9,657.1-10.6,655.5
		 M-12.2,661.4c0.3,0.1,0.5,0.7,0.5,1.8c0,0.6-0.3,0.9-0.8,1.1c-0.6,0.1-1.4,0.3-2.2,0.7c-0.7,0.3-1.3,0.5-1.9,0.6
		c-0.8,0.2-1.6,0.5-2.5,1c-0.3,0-0.5-0.6-0.5-1.8c0-0.6,0.2-1,0.6-1.3C-14.6,662.1-12.4,661.4-12.2,661.4 M-12.3,666.7
		c0.3,0.1,0.5,0.6,0.5,1.6c0,0.5-0.3,0.9-0.8,1.1c-0.6,0.1-1.3,0.3-2.1,0.6c-0.7,0.2-1.3,0.4-1.8,0.5c-0.8,0.2-1.6,0.4-2.4,0.8
		c-0.3,0-0.5-0.5-0.5-1.6c0-0.5,0.2-0.8,0.5-1C-14.7,667.4-12.5,666.8-12.3,666.7 M-19.8,673.7l0.8,0.2c2.2-0.9,3.9-1.4,5.1-1.5
		c0.8-0.2,1.3-0.4,1.3-0.4c0.4,0,0.9,0.4,1.4,1.1c0.5,0.6,0.7,1.2,0.7,1.7c0,0.2-0.1,0.5-0.3,0.8c-0.3,0.5-0.7,2.3-1.4,5.4
		c-0.2,0.9-0.3,1.3-0.5,1.4c-0.3,0-0.6-0.2-0.9-0.6c-2,0.6-3.2,1.1-3.5,1.5c-0.2,0.2-0.4,0.3-0.5,0.3c-0.5-0.1-1.1-1.5-1.8-4.4
		c-0.6-2.3-0.9-3.9-0.9-4.7C-20.2,674-20.1,673.7-19.8,673.7 M-17,680c0.4,0,1.2-0.3,2.7-0.9c0.1,0,0.3-0.3,0.4-0.7
		c0.1-0.8,0.2-1.6,0.2-2.5c0-1-0.1-1.5-0.4-1.5c-0.5,0-1.1,0.2-1.9,0.6c-1,0.5-1.5,0.9-1.5,1.3C-17.6,678.8-17.4,680-17,680
		 M1.9,648c0.2,0.1,0.4,0.7,0.4,1.7c0,0.9-0.3,1.6-0.8,2.3c-1.2,0.4-2.3,0.8-3.4,1c-0.1,1-0.3,2.5-0.6,4.6c2-0.5,3.2-0.8,3.4-0.8
		c0.3,0,0.9,0.3,1.7,0.8c0.8,0.5,1.1,1,1.1,1.5c0,0.2-0.1,0.6-0.4,1.2c-0.4,1.2-0.8,3.3-1.5,6.1c1-0.2,1.9-0.4,2.7-0.7
		c0.7-0.3,1.3-0.4,1.7-0.4c0.4,0,0.8,1.3,1.3,3.9c0,0.4-0.3,0.6-0.7,0.6l-1.7-0.1c-1.2,0-3.7,0.2-7.7,0.6c-3,0.4-5.6,1.1-7.8,2
		c-0.2,0-0.5-0.4-0.8-1.1c-0.4-1.1-0.6-1.7-0.6-1.9c0-0.3,0.2-0.5,0.6-0.6c1.1,0,2.4-0.2,4-0.6c0-0.1,0.1-0.2,0.1-0.4
		c0.4-1.1,0.7-3.2,1.2-6.3c-0.1,0-0.1,0.1-0.2,0.1c-1.6,1-2.6,1.4-3,1.4c-0.2,0-0.4-0.5-0.4-1.5c0.1-1.5,0.3-2.3,0.8-2.5
		c0.7,0,1.7-0.2,3.2-0.6c0.3-2.1,0.4-3.7,0.4-4.7c-1,0.2-2.1,0.6-3.3,1c-0.3,0-0.5-0.7-0.6-1.9c-0.1-0.9-0.2-1.5-0.2-1.7
		c0-0.6,0.2-0.9,0.7-0.9c2.1-0.1,5.1-0.6,9-1.6C1.3,648.3,1.8,648.1,1.9,648 M-4,667.3c1-0.2,2.1-0.3,3.2-0.5
		c0.5-2.8,0.8-4.7,0.8-5.6c0-0.9-0.2-1.4-0.6-1.4c-0.7,0.2-1.4,0.4-2.1,0.6C-3.2,663-3.6,665.3-4,667.3 M-0.8,672.4
		c1.3,0,2.5,0.5,3.5,1.5c0.8,0.7,1.2,1.4,1.2,1.8c0,0.7-0.2,1.3-0.5,1.8c-1,1.7-1.7,4.1-2.1,7.2c-0.1,0.5-0.3,0.8-0.5,0.8
		c-0.2,0-0.5-0.2-1.2-0.6c-0.6-0.3-1.3-0.4-2-0.4c-0.6,0-1.6,0.2-2.7,0.5c-0.6,0.3-1,0.5-1.4,0.5c-0.3,0-0.5-0.3-0.6-0.8
		c-0.3-1.3-0.6-2.6-1-3.7c-0.5-1.4-0.9-2.7-1.1-3.7c-0.2-0.7-0.3-1.3-0.3-1.7c0-0.5,0.4-1,1.2-1.3C-5,673-2.5,672.4-0.8,672.4
		 M-5.2,681.7c1.2,0,2.4-0.3,3.7-1c0.4-0.2,0.8-0.7,1-1.6c0.2-1,0.4-1.9,0.4-2.7c0-1-0.4-1.5-1.1-1.5c-1.2,0-2.6,0.4-4.1,1.2
		c-0.4,0.3-0.6,0.7-0.6,1.3c0,0.5,0.1,1.6,0.3,3.2C-5.7,681.3-5.5,681.7-5.2,681.7 M-1.9,704.2c-0.9,0-2.7,0.2-5.3,0.5
		c-0.3,1.4-0.7,2.5-1.2,3.4c1.5-0.3,2.8-0.5,3.8-0.5c0.6,0,1.3,0.3,2.3,0.9c0.7,0.5,1,1,1,1.4c0,0.4-0.1,0.9-0.2,1.7
		c-0.2,1.2-0.4,6.2-0.8,14.9c1.9-0.3,3.8-0.6,5.5-0.9c0.6-0.3,1.2-0.4,1.9-0.4c0.2,0.7,0.4,1.4,0.6,2.1c0.4,1.1,0.7,2.1,0.7,3
		c-0.1,0.6-0.2,0.9-0.4,1c-0.2,0-0.6-0.2-1.4-0.6c-0.9-0.5-1.7-0.8-2.4-0.8c-2.9,0-6.7,0.3-11.4,0.9c0,0.3-0.2,0.7-0.4,1.3
		c-0.4,1.3-1,2.5-1.7,3.7c-0.4,0.6-0.6,1.4-0.7,2.4c-0.2,0.9-0.7,1.5-1.6,1.7c-1.6,0.7-2.9,1.1-4.1,1.1c-0.9,0-1.3-0.2-1.3-0.7
		c0-0.2,0.3-0.5,0.9-0.9c2.3-1.6,3.9-3.1,4.7-4.5c0.6-1.1,1.1-2.4,1.4-3.7c-3.5,0.6-6.2,1.3-8.1,2.1c-0.3,0-0.7-1.3-1.1-3.8l0.7-0.3
		h1.1c2-0.3,3.9-0.6,5.7-0.9v-0.3c0-7.6-0.3-13.5-0.8-17.6c0.1-1.1,0.2-1.6,0.5-1.6c0.2,0,0.6,0.2,1.1,0.6c0.2-0.2,0.6-0.3,1-0.4
		c0.5-0.1,1.1-0.3,1.6-0.4c0.1-0.3,0.1-0.7,0.2-1.1c0.2-0.7,0.4-1.5,0.6-2.4c-2.2,0.5-4.1,1.2-5.7,2.1c-0.3,0-0.6-0.4-1-1.2
		c-0.4-1.3-0.7-2-0.7-2.2c0-0.4,0.2-0.7,0.7-0.9c1.3,0,2.9-0.3,5-0.9c0.7-0.1,1.4-0.2,2.1-0.4c0.2-1.5,0.4-3.3,0.6-5.3
		c0.1-0.6,0.3-1,0.7-1c0.3,0,0.9,0.2,1.6,0.7c0.7,0.6,1.1,1,1.1,1.4c0,0.3-0.1,0.6-0.3,0.8c-0.2,0.6-0.5,1.5-0.8,2.8
		c0.1,0,0.2-0.1,0.4-0.1c1.4-0.1,2.7-0.3,3.7-0.7c0.6-0.3,1.2-0.4,1.5-0.4c0.4,0,0.8,1.3,1.3,3.9c0,0.4-0.3,0.6-0.7,0.6L-1.9,704.2
		 M-11.5,728.1c2.4-0.4,4.7-0.8,6.8-1.1c-0.1-5.2-0.1-10-0.1-14.3c0-1.6-0.4-2.5-1.1-2.5c-1.5,0-3.5,0.7-5.9,2.1c0,0.1,0,0.3,0,0.4
		c0,0.4,0,0.8,0,1.2c3.3-0.8,5-1.3,5.1-1.3c0.4,0.1,0.5,0.7,0.5,1.8c0,0.5-0.3,0.9-0.8,1c-0.5,0.1-1.1,0.2-1.8,0.5
		c-0.5,0.2-1.1,0.3-1.6,0.4c-0.4,0.1-0.9,0.2-1.4,0.4c0,0.6,0,1.2,0,1.8c3.4-0.8,5.1-1.1,5.3-1.1c0.3,0.1,0.5,0.7,0.5,1.8
		c0,0.5-0.3,0.8-0.8,1c-0.6,0.1-1.2,0.2-1.9,0.5c-0.6,0.2-1.2,0.3-1.7,0.4c-0.4,0.1-0.9,0.2-1.4,0.4v1.8c3.4-0.8,5.2-1.1,5.4-1.2
		c0.3,0.1,0.5,0.7,0.5,1.9c0,0.5-0.3,0.8-0.8,1c-0.6,0.1-1.2,0.3-1.9,0.5c-0.6,0.2-1.1,0.3-1.6,0.4c-0.5,0.1-1,0.2-1.5,0.4
		C-11.6,727.1-11.5,727.7-11.5,728.1 M-5.5,731.6c0.6,0.2,1.7,0.6,3.1,1.4c1.4,0.7,2.5,1.8,3.5,3.3c0.1,0.3,0.1,0.6,0.1,1
		c-0.3,2.7-0.9,4.1-1.7,4.1c-0.4,0-0.7-0.4-1-1.2c-1.1-2.7-2.4-5.2-4.1-7.4c-0.2-0.3-0.4-0.6-0.4-0.8C-6,731.7-5.9,731.6-5.5,731.6
		 M-1.9,752.3c0.3,0,0.9,0.3,1.7,0.8c0.8,0.5,1.2,1.1,1.2,1.6c0,0.4-0.2,1-0.5,1.8c-0.2,0.7-0.4,1.5-0.7,2.6
		c1.1-0.2,2.2-0.4,3.3-0.6c0.6-0.3,1.2-0.5,1.9-0.5c0.2,0.7,0.3,1.3,0.6,2c0.4,1,0.6,2,0.6,2.9c-0.1,0.5-0.2,0.7-0.4,0.8
		c-0.1,0-0.5-0.2-1.3-0.6c-0.8-0.4-1.6-0.6-2.3-0.6c-1,0-2,0-3.1,0.1c-0.3,1.3-0.6,2.7-0.9,4.2c0,0,0.1,0,0.1,0
		c0.3,0,0.4,0.8,0.4,2.5c0,0.4-0.3,0.7-0.8,1c-2.7,0.8-5,1.4-6.9,1.6c-0.4,0.1-0.8,0.1-1.3,0.2c-0.5,1.7-1.2,3.4-1.9,5.3
		c3.8-1.3,6.6-1.9,8.5-1.9c1.4,0,2.6,0.5,3.7,1.5c0.8,0.8,1.2,1.5,1.2,2c0,0.7-0.2,1.4-0.5,1.9c-1.1,1.7-1.8,4.2-2.2,7.4
		c-0.1,0.7-0.3,1.1-0.5,1.1c-0.2,0-0.6-0.2-1.2-0.6c-0.7-0.3-1.4-0.5-2.1-0.5c-0.9,0-2.2,0.2-3.9,0.7c-0.8,0.4-1.5,0.6-2,0.6
		c-0.2,0-0.4-0.3-0.6-0.8c-0.3-1.4-0.6-2.7-1.1-3.9c-0.4-1.2-0.7-2.2-0.9-3.2c-1,0.8-2,1.6-3.2,2.2c-1.6,1.3-3.3,1.9-5.1,1.9
		c-0.2,0-0.3-0.1-0.3-0.2c0-0.6,1.1-1.9,3.3-3.9c2.9-2.9,5-6,6.3-9.2c-0.7,0.2-1.5,0.4-2.3,0.6c-0.3,0-0.6-0.4-0.8-1.2
		c-0.2-0.7-0.3-1.3-0.3-1.8c0-0.4,0.2-0.6,0.6-0.6c0.6-0.1,2-0.3,4.1-0.7c0.5-1.7,0.8-3.3,1-4.8c-4.3,0.9-7.6,2-9.8,3.4
		c-0.3,0-0.7-1.4-1-4.3l0.8-0.2h1.1c3.3-0.7,6.4-1.3,9.3-1.9c0-0.4,0-0.8,0-1.2c0-0.8-0.2-1.6-0.5-2.5l-0.1-0.4
		c-0.2,0.1-0.3,0.1-0.5,0.1c-2.3,1-3.6,1.5-4.1,1.5c-0.3,0-0.4-0.5-0.4-1.5c0.1-1.6,0.4-2.5,1-2.6c1.3,0,3.9-0.5,7.9-1.5
		C-3.9,752.6-2.2,752.3-1.9,752.3 M-9.1,768.4c1.3-0.3,2.7-0.6,4.4-0.9c0.3-1.7,0.6-3.2,0.9-4.5c-1.4,0.2-2.8,0.4-4.3,0.7
		C-8.4,765.1-8.7,766.6-9.1,768.4 M-7.2,756.1c0.4,0.3,0.7,0.6,0.7,0.9c0,0.3-0.2,0.8-0.5,1.6c-0.2,0.4-0.4,1.1-0.6,2.1
		c1.5-0.3,3-0.6,4.3-0.9c0.2-1.2,0.2-2.1,0.2-2.8c0-1.1-0.3-1.6-0.8-1.6C-5,755.6-6.2,755.8-7.2,756.1 M-9.6,785.5
		c1.7,0,3.5-0.4,5.3-1.2c0.5-0.2,0.8-0.8,1.1-1.6c0.3-1.1,0.4-2,0.4-2.9c0-1.1-0.4-1.6-1.2-1.6c-1.6,0-3.4,0.5-5.6,1.4
		c-0.6,0.4-0.8,1-0.8,1.6c0,0.5,0.1,1.6,0.3,3.2C-10.1,785.1-9.9,785.5-9.6,785.5 M-4.2,805.3c0.7,0,1.8,0.7,3.3,2.2
		c0.9,1,1.4,1.9,1.4,2.7c0,0.4-0.3,0.9-0.9,1.6c-1.4,1-3.5,3-6.2,5.8c0.4,1,0.7,1.9,0.9,2.8c3.3-0.7,6.2-1.3,8.9-1.9
		c0.6-0.3,1.2-0.5,1.9-0.5c0.2,0.8,0.4,1.6,0.7,2.4c0.4,1.2,0.7,2.3,0.8,3.4c-0.1,0.6-0.3,0.9-0.5,1c-0.2,0-0.7-0.3-1.6-0.8
		c-1-0.6-1.8-0.9-2.6-0.9c-2,0-4.3,0.2-7.2,0.7c0.1,1.3,0.1,2.8,0.1,4.5c0,3.6-0.1,6.6-0.3,9.3c-0.2,2.4-0.3,4.2-0.5,5.3
		c-0.1,0.7-0.2,1.5-0.3,2.2c-0.1,0.8-0.2,1.2-0.3,1.2c-0.4,0-0.7-0.1-1-0.3c-0.4-0.2-1-0.4-1.7-0.5c-1.2-0.2-2.4-1.1-3.6-2.6
		c-1.8-2.4-2.7-3.9-2.7-4.6c0-0.2,0.1-0.4,0.4-0.4c0.4,0,1,0.4,1.7,1.3c1.8,1.2,3.1,1.7,3.9,1.7c0.4,0,0.7-0.9,1-2.8
		c0.4-1.8,0.6-5.1,0.6-9.9c0-1.5-0.1-2.8-0.2-4c-0.6,0.1-1.2,0.2-1.9,0.3c-4.3,0.9-7.6,2-9.8,3.3c-0.3,0-0.7-1.4-1-4.3l0.8-0.3h1.1
		c3.7-0.8,7.1-1.5,10.3-2.3c0,0,0,0,0,0c-0.6-1.8-1.2-2.9-2-3.2c-0.4-0.2-0.6-0.5-0.6-0.8c0-0.3,0.3-0.8,0.9-1.3
		c0.6-0.5,1.2-0.7,1.9-0.7c0.3,0,0.6,0.3,0.9,0.8c0.1,0.1,0.2,0.3,0.2,0.4c2-4,3.1-6.3,3.1-7.2c0-1-0.4-1.5-1.2-1.5
		c-0.7,0.1-1.9,0.9-3.5,2.1c-1.8,1.4-3.2,2.6-4.2,3.8c-0.3,0.4-0.6,0.6-0.9,0.6c-0.3,0-0.8-0.9-1.3-2.7c-0.6-1.3-0.8-2-0.8-2.4
		s0.3-0.5,0.8-0.6c1-0.1,2.8-0.7,5.4-1.7C-7.4,805.8-5.4,805.3-4.2,805.3"/>
	<path id="text3720" d="M755,498.5c0.4,0,0.6,1,0.6,2.9c0,0.5-0.4,0.9-1.1,1.3c-0.8,0.4-1.6,0.8-2.3,1c0,1.6-0.1,2.8-0.1,3.7
		c1.3-0.4,2.7-1,4.1-1.5c0.3,0,0.5,0.8,0.5,2.5c0,0.4-0.3,0.7-0.8,1c-1.4,0.7-2.6,1.2-3.8,1.6c0,1.2,0,2.4,0,3.6
		c0.7-0.2,1.8-0.5,3.3-0.9c0.4,0,0.5,0.8,0.5,2.4c0,0.4-0.3,0.7-0.8,1.1c-0.7,0.4-1.3,0.7-1.9,0.9c-0.4,0.1-0.8,0.3-1.3,0.6
		c0,0.9-0.1,1.9-0.1,2.8c0.6,0.3,1.4,0.5,2.5,0.8c1.6,0.5,3.8,1.9,6.6,4c1.4,1.1,2.7,1.8,4,2c0.7,0.2,2.1,0.7,4.1,1.5
		c1.2,0.5,2.3,1.2,3.2,2c0,1-1.8,1.5-5.3,1.5c-2.2-0.4-4-0.7-5.2-0.7c-0.8,0-1.2-0.4-1.3-1.1c-0.1-1.4-0.6-2.4-1.6-3.1
		c-1-0.7-2-1.3-3.2-1.8c-1-0.3-3.3-1.4-6.8-3.3c-1-0.5-1.7-0.7-2.2-0.7c-0.1,0-0.1-0.1-0.2-0.2c0,0.1,0,0.1-0.1,0.2
		c-0.3,0.9-0.5,1.9-0.6,3.2c-0.1,1.2-0.6,1.9-1.3,2.4c-1.3,0.9-2.5,1.3-3.5,1.3c-0.7,0-1-0.1-1-0.4c0-0.3,0.2-0.7,0.7-1.2
		c2-2.2,3.3-4.2,4-6c0.7-1.9,1.1-4.1,1.4-6.6c0-0.7,0.1-1,0.3-1c1.2,0,1.9,0.4,1.9,1.1c0,0.4-0.1,1.1-0.3,2.1c0,0.1,0,0.2,0,0.3
		c0.2,0.2,0.5,0.4,0.7,0.7c0.3,0.5,0.7,0.9,1.2,1.4v-8.2c-0.3,0.1-0.6,0.2-0.8,0.2c-1.6,0.4-3.7,1.1-6.1,2.2c-0.3,0-0.6-0.4-0.8-1.2
		c-0.2-0.7-0.2-1.3-0.2-1.8c0-0.4,0.2-0.6,0.5-0.6c1-0.1,3.5-0.9,7.5-2.4c0-1,0-2.3,0-3.8c-0.8,0.2-1.8,0.6-2.9,1.2
		c-0.4,0-0.7-0.5-0.9-1.4c-0.2-0.8-0.3-1.5-0.3-2.2c0-0.6,0.2-0.9,0.6-0.9c0.5-0.1,1.7-0.4,3.5-0.9c0-2.7,0-5.9,0-9.5
		c0-0.6,0.3-0.9,0.9-0.9c1.4,0,2.2,0.4,2.2,1.3c-0.2,0.7-0.3,1.7-0.3,3.1c-0.1,1.9-0.2,3.6-0.2,5.1
		C753.2,499.1,754.1,498.8,755,498.5 M762.9,500.1c0.5,0,1.2,0.4,2.3,1.2c1.2,0.9,1.7,1.6,1.7,2c0,0.1-0.2,0.4-0.5,0.8
		c-0.4,0.6-1,2-1.8,4.1c0.2,0.4,0.2,1,0.2,1.7c0,0.6-0.3,1.1-1,1.3c-0.5,0.1-1.1,0.2-1.7,0.5c-0.5,0.2-1,0.3-1.5,0.4
		c-0.5,0.1-1,0.3-1.5,0.5c-0.1,1.6-0.2,2.9-0.2,3.9c0,1,0.2,1.8,0.5,2.3c0.4,0.5,1.5,0.8,3.2,0.8c1.5,0,2.4-0.2,2.7-0.8
		c0.4-0.6,0.7-2.4,0.7-5.6c0-0.3,0-0.4,0.1-0.4c0.2,0,0.5,0.4,0.9,1.3c0.8,2.1,1.3,4.2,1.3,6.1c0,0.7,0,1.2,0.1,1.5
		c0.1,0.2,0.1,0.4,0.1,0.5c0,0.3-0.2,0.4-0.5,0.4c-0.3,0-0.7,0.1-1,0.2c-0.4,0.1-1.9,0.1-4.5,0.1c-2,0-3.1-0.1-3.3-0.4
		c-0.2-0.2-0.4-0.4-0.6-0.5c-0.3-0.1-0.7-0.8-1.2-1.8c-0.6-1.3-0.9-2.6-0.9-3.8c0-1.2,0.2-4.3,0.7-9.2c0.1-1.2,0.2-2.2,0.2-3.3
		c0-0.4,0-0.9-0.1-1.4c-0.1-0.3-0.2-0.6-0.2-0.9c0-0.3,0.1-0.5,0.4-0.8c0.2-0.3,0.7-0.5,1.5-0.5c0.3,0,0.6,0,0.9,0.2
		c0.4-0.1,0.8-0.3,1.4-0.4C761.9,500.2,762.5,500.1,762.9,500.1 M760,504c-0.2,1.8-0.4,3.4-0.6,4.9c0.8-0.2,1.6-0.4,2.2-0.5
		c0.8-2.6,1.2-3.9,1.2-4.1c0-0.9-0.3-1.3-0.8-1.3C761.3,503.1,760.6,503.4,760,504 M761.6,542.1c0.5,0,1,1.3,1.3,3.7
		c0,0.3-0.2,0.5-0.6,0.6c-1.4,0-3.3,0.5-5.7,1.4c-0.6,0.2-1.1,0.7-1.6,1.6c0.1,0,0.2,0,0.3,0c1,0,1.7,0.3,2.2,0.8
		c0.3,0.4,0.5,1,0.5,1.9v2.6c1.6-0.4,3.3-1,5.2-1.6c0.3,0,0.5,1,0.5,3.1c0,0.4-0.3,0.7-0.9,1c-1.8,0.8-3.4,1.4-4.8,1.8v5
		c3.2-0.6,6.1-1.2,8.7-1.7c0.5-0.3,1.1-0.5,1.8-0.5c0.2,0.8,0.4,1.6,0.7,2.4c0.4,1.2,0.7,2.3,0.8,3.4c-0.1,0.6-0.3,0.9-0.6,1
		c-0.1,0-0.6-0.2-1.5-0.7c-1-0.6-1.9-0.9-2.6-0.9c-2,0-4.4,0.2-7.3,0.8v11.7c0,2.1-0.1,3.8-0.2,5.3c-0.2,1.3-0.5,1.9-0.8,1.9
		c-0.2,0-0.6-0.3-1.3-0.8c-0.7-0.7-1.4-1.2-2.1-1.5c-0.6-0.3-1.6-1.3-3-3.1c-0.9-1-1.4-1.6-1.4-1.9c0-0.4,0.2-0.6,0.5-0.6
		c2,1.1,3.5,1.6,4.6,1.6c0.7,0,1-1,1-2.9v-9.2c-0.5,0.1-0.9,0.1-1.4,0.2c-4.2,0.9-7.4,2.1-9.5,3.5c-0.4,0-0.9-1.6-1.3-5l0.9-0.4h1.2
		c3.6-0.7,7-1.4,10.1-2v-4.9c-1.4,0.3-3.2,1-5.2,1.8c-0.4,0-0.7-0.5-0.9-1.5c-0.2-0.8-0.3-1.5-0.3-2.2c0-0.5,0.2-0.8,0.6-0.8
		c0.8-0.1,2.7-0.6,5.7-1.5v-0.9c0-1.3-0.2-2.4-0.6-3.2c-0.2-0.2-0.3-0.3-0.4-0.5c-0.6,0.7-1.4,1.2-2.5,1.3c-1.9,0.5-3.2,0.8-4,0.8
		c-0.4,0-0.6-0.2-0.6-0.6c2.1-2.5,4.2-4.5,6.3-6.2c1.7-1.4,3.4-2.3,5-2.6C759.6,543.6,760.6,543,761.6,542.1 M754.3,593.7
		c0.2,0,0.7,0.4,1.5,1.2c0.7,0.8,1,1.4,1,1.7c0,0.2-0.2,0.5-0.5,0.8c-1.1,1.6-2.4,4-3.9,7.2c0,0-0.1,0.1-0.1,0.1
		c1.4-0.3,5-1.4,10.6-3.3c0.4,0,0.5,0.9,0.5,2.7c0,0.4-0.3,0.8-1,1.1c-2.1,1.1-3.9,1.8-5.3,2.1c-1.2,0.3-2.8,0.9-4.5,1.8
		c-0.4,0-0.7-0.5-0.9-1.5c-0.1-0.3-0.2-0.7-0.2-1c-0.2,0.5-0.3,1.1-0.3,1.6c-0.2,1-0.5,1.7-1.1,2.4c-0.2,0.2-0.4,0.4-0.5,0.6
		c0.2,0.1,0.4,0.1,0.6,0.2c0.8,0.2,1.2,0.5,1.2,0.7c0,0.1,0,0.4-0.1,0.8c0,0.5-0.1,0.8-0.1,0.9c0,0.4,0,0.9,0,1.3
		c0.4-0.1,0.9-0.2,1.3-0.4c0.3-0.1,0.6-0.1,0.8-0.1c-0.1-1.2-0.2-2-0.4-2.5c-0.2-0.5-0.3-1-0.3-1.4c0-0.4,0.5-0.6,1.5-0.6
		c0.7,0,1,0.4,1,1.1c0,1,0,2,0,3.1c0.7-0.1,1.5-0.3,2.3-0.5l0.1-3.1c0-0.3,0-0.6-0.1-1c0-0.2,0.1-0.3,0.2-0.5
		c0.2-0.2,0.5-0.3,0.9-0.3c0.3,0,0.7,0.1,1.1,0.3c0.3,0.2,0.5,0.4,0.5,0.6c0,0.1-0.1,0.2-0.2,0.3c-0.3,0.3-0.4,0.9-0.5,1.7
		c0,0.6-0.1,1.1-0.1,1.7c0.8,0,1.6-0.1,2.3-0.3c0.1-1.3,0.1-2.8,0.2-4.3c0-0.6,0.3-0.9,0.9-0.9c1.3,0,2,0.4,2,1.1
		c-0.4,0.5-0.7,1.3-0.8,2.3c-0.1,0.4-0.1,0.9-0.2,1.2c0.1,0,0.1,0,0.2,0c0.8-0.4,1.4-0.6,1.9-0.6c0.3,0,0.7,1.3,1.2,3.9
		c0,0.3-0.3,0.4-0.7,0.4l-1.7-0.2c-0.4,0-0.8,0-1.4,0c-0.3,2.4-0.5,4.1-0.6,5.2c1.3-0.2,2.5-0.4,3.6-0.6c0.6-0.2,1.2-0.3,1.8-0.3
		c0.2,0.6,0.3,1.2,0.6,1.8c0.3,0.9,0.5,1.8,0.6,2.7c-0.1,0.6-0.2,0.9-0.4,1c-0.1,0-0.6-0.2-1.3-0.6c-0.8-0.4-1.5-0.6-2.2-0.6
		c-2.8,0-6.7,0.3-11.5,1c-4.2,0.7-7.4,1.5-9.5,2.5c-0.3,0-0.6-1.2-1-3.6l0.7-0.2h0.9c1.6-0.3,3.2-0.6,4.7-0.8c0-0.1,0-0.3,0.1-0.4
		c0-0.3,0-0.7,0-1c-0.2-1.2-0.3-2.3-0.5-3.3c-0.9,0.4-1.8,0.8-2.6,1.3c-0.2,0-0.5-0.4-0.9-1.2c-0.4-1.1-0.6-1.7-0.6-1.9
		c0-0.4,0.2-0.6,0.7-0.8c0.9-0.1,1.9-0.2,3-0.4c-0.2-1.7-0.4-2.9-0.5-3.6c-0.4,0.3-0.7,0.5-1,0.6c-0.7,0.3-1.4,0.7-2,1.1
		c-0.1,0-0.2-0.1-0.2-0.4c0-0.3,0.2-0.9,0.7-1.5c1.8-3,3.3-5.8,4.6-8.5c1.4-3.1,2.4-6.1,3.1-8.8C754,594,754.1,593.7,754.3,593.7
		 M751.8,623.1c0.7-0.1,1.3-0.2,1.9-0.3c0-2.1-0.1-3.9-0.2-5.4c-0.8,0.2-1.5,0.4-2.2,0.6C751.4,619.7,751.6,621.4,751.8,623.1
		 M755.4,622.5c0.6-0.1,1.2-0.2,1.8-0.3c0-0.2,0-0.4,0-0.7l0.2-4.8c-0.5,0.1-0.9,0.1-1.4,0.2c-0.2,0-0.5,0.1-0.7,0.1
		C755.3,618.7,755.3,620.6,755.4,622.5 M759.1,621.9c0.6-0.1,1.2-0.2,1.8-0.4c0.2-1.3,0.4-3.1,0.6-5.3c-0.7,0.1-1.4,0.2-2.3,0.3
		c-0.1,1.6-0.1,2.9-0.1,3.6c0,0.6,0,1.1,0,1.5V621.9 M749.4,626.9c0.4,0,0.6,0.1,0.6,0.4c-0.6,2.5-0.9,4.2-1.1,5.2
		c-0.1,1-0.2,1.8-0.4,2.6c-0.1,0.7-0.2,1.4-0.3,2.1c0,0.6-0.1,0.9-0.2,0.9c-0.4,0-0.8-0.6-1.3-1.7c-0.7-1.2-1-2-1-2.4
		c0-0.3,0.2-0.5,0.5-0.6c0.3-0.4,0.6-1,0.9-1.7C747.4,630.6,748.2,629,749.4,626.9 M753.2,627.5c0.2,0.2,0.4,0.7,0.6,1.7
		c0.3,1,0.6,1.8,1,2.6c0.4,1.1,0.7,2.1,0.7,3.3c0,0.5-0.2,0.8-0.6,0.8c-0.6-0.6-1.2-1.1-1.7-1.4c-0.5-0.2-0.8-1.5-0.8-3.7
		c0-1.1,0.1-1.9,0.3-2.6C752.9,627.7,753,627.5,753.2,627.5 M758.7,627.1c0.2,0.2,0.4,0.7,0.6,1.6c0.3,0.9,0.7,1.7,1.1,2.6
		c0.5,1,0.7,2.1,0.8,3.1c0,0.6-0.2,0.9-0.6,0.9c-0.7-0.6-1.3-1.1-1.9-1.3c-0.6-0.2-0.9-1.5-0.9-3.6c0-1,0.1-1.8,0.3-2.6
		C758.3,627.3,758.5,627.1,758.7,627.1 M762.5,625.6c0.2,0,1.3,0.8,3.1,2.5c0.6,0.7,1.1,1.2,1.5,1.3c0.2,0.4,0.3,2,0.3,4.8
		c0,0.6-0.1,1.4-0.4,2.2c-0.2,0.7-0.5,1.1-0.7,1.1c-0.2,0-0.3-0.3-0.5-0.9c-1-3.4-2-6.4-3.1-9c-0.4-0.6-0.6-1.1-0.6-1.4
		C762.1,625.8,762.2,625.6,762.5,625.6 M744.9,659.2c0.2,0,0.5,0.1,1.1,0.4c0.2-0.1,0.4-0.3,0.6-0.4c2.1-1,5.1-1.8,9-2.5
		c2.8-0.5,5.1-0.8,7-0.8c2.6,0,4.5,0.5,5.7,1.5c0.7,0.7,1.1,1.4,1.1,2c0,0.2-0.1,0.4-0.2,0.7c-0.4,0.8-0.7,2.2-0.9,4.3
		c-0.9,8.6-1.8,13.9-2.6,15.9c-0.5,2-0.9,3.7-1.2,5.1c-0.1,1.1-0.4,1.6-0.8,1.6c-0.2,0-0.4-0.1-0.6-0.4c-0.6-0.8-1.3-1.7-2.1-2.6
		c-0.4-0.4-0.9-1.2-1.6-2.4c-0.9,0.1-1.8,0.4-2.9,0.7c-1.2,0.3-2.3,0.6-3.3,0.7c-1.4,0.2-2.8,0.5-4.3,1c-0.1,0-0.2,0-0.3-0.2
		c-0.3,0-0.5,0.1-0.8,0.2c-0.6,0-1.5-2.5-2.5-7.4c-0.9-5.5-1.4-10.9-1.4-16.4C744,659.6,744.3,659.2,744.9,659.2 M748.8,679.9
		c0.1-0.1,0.2-0.1,0.3-0.1c7.4-1.2,11.3-1.8,11.6-1.9c0.5,0.1,0.7,0.9,0.7,2.3c0,0.2,0,0.3,0,0.5c0.6-0.7,1.1-2.2,1.6-4.6
		c1.1-5.7,1.7-10.4,1.7-14.2c0-1.8-1.3-2.7-3.6-2.7c-1.6,0-3.9,0.3-6.7,1c-2.6,0.9-4.9,2.1-6.7,3.4c-0.2,2.6-0.2,4.6-0.2,6
		C747.2,672.1,747.7,675.5,748.8,679.9 M750.8,665.3l1,0.3c2.5-0.9,4.5-1.4,5.7-1.5c1-0.2,1.5-0.3,1.5-0.3c0.5,0,1,0.4,1.7,1.1
		c0.6,0.7,0.8,1.4,0.8,1.9c0,0.2-0.2,0.5-0.5,0.8c-0.4,0.5-1,2.4-1.9,5.6c-0.2,0.9-0.4,1.3-0.7,1.4c-0.3,0-0.7-0.2-1.1-0.7
		c-2.3,0.6-3.6,1.1-4,1.4c-0.2,0.2-0.4,0.2-0.6,0.2c-0.5,0-1-1.5-1.7-4.3c-0.5-2.3-0.7-3.8-0.7-4.6
		C750.4,665.7,750.5,665.3,750.8,665.3 M753.4,671.9c0.4,0,1.4-0.2,2.9-0.6c0.3,0,0.6-0.2,0.8-0.7c0.3-0.8,0.5-1.6,0.5-2.4
		c0-1.1-0.2-1.6-0.5-1.6c-0.5,0-1.2,0.1-2.1,0.5c-1.1,0.5-1.6,1-1.6,1.4C753.3,670.7,753.4,671.9,753.4,671.9 M762.7,711.8
		c0.4,0.1,0.8,1.6,1.2,4.3c0,0.4-0.3,0.7-0.8,0.8c-2.7,1.5-5.1,2.6-7.1,3.4c-0.1,0.4-0.1,0.8-0.2,1.2c0,0,0,0.1,0,0.1
		c0.4,1.4,2,3.9,4.6,7.5c3.1,4,5.4,6.6,7.1,7.9c1.2,0.8,2.2,1.6,3.1,2.7c0.7,0.6,1.1,1.2,1.1,1.6c-0.1,0.4-0.4,0.7-0.9,0.7
		c-2.8,0-5.1-0.3-7-0.8c-1.1-0.4-1.7-1.1-1.8-2.1c0-1.4-0.2-2.4-0.6-3.1c-1.5-3.1-3.6-6-6.4-8.8c0,0-0.1-0.1-0.1-0.1
		c-1,3.8-2.7,7.3-5.1,10.5c-0.9,1.1-1.5,2.1-1.8,2.9c-0.2,0.5-0.3,0.8-0.5,0.8c-1.1-0.2-2.1-0.4-2.9-0.4c-0.6,0-1.3-0.3-2.3-1
		c-0.5-0.4-0.8-0.7-0.8-0.9c0-0.4,0.2-0.7,0.6-0.8c3.2-0.7,5.9-2.7,8.1-6.1c1.3-2.5,2.3-6.1,3-10.9c-0.3,0.1-0.6,0.1-0.9,0.2
		c-2.1,0.4-3.6,1-4.6,1.6c-0.3,0-0.6-1.1-0.9-3.4c-0.1-1.2-0.2-2.1-0.3-2.6c0.1-0.7,0.3-1.1,0.8-1.2c2.4-0.1,4.6-0.4,6.6-0.9
		c0.5-4.2,0.7-8.4,0.7-12.4l-0.3-2.9c0-0.6,0.4-0.9,1.2-1c0.4,0,1,0.1,1.7,0.5c0.8,0.3,1.2,0.8,1.2,1.4c0,0.2-0.2,0.5-0.6,0.9
		c-0.4,0.7-0.7,1.7-0.9,2.9c-0.1,3.1-0.2,6.3-0.5,9.7c0,0.1,0,0.2,0,0.3c1.5-0.4,2.9-1,4.2-1.7C761.6,712.2,762.3,711.9,762.7,711.8
		 M762.2,768.2c-0.7,0-1.9,0.1-3.7,0.4c-0.2,2-0.4,4.2-0.7,6.6c-0.3,2.2-0.6,4.1-0.9,5.7c1.2,1,2.8,2.7,4.7,5.1
		c1.1,1.5,2.2,2.4,3.3,2.8c0.6,0.2,1.8,1,3.5,2.3c1,0.6,1.9,1.6,2.7,2.9c0,0.7-1.2,1.1-3.7,1.1c-1.9-0.6-3.5-1-4.6-1
		c-0.7,0-1-0.5-1.1-1.5c0-2-0.5-3.4-1.4-4.4c-0.9-1-1.8-1.9-2.8-2.5c-0.3-0.2-0.8-0.5-1.4-1c-0.1,0.2-0.1,0.4-0.2,0.6
		c-0.8,2.3-2.1,3.7-3.7,4.3c-1.6,0.8-2.7,1.6-3.1,2.3c-0.4,0.5-0.9,0.8-1.6,0.8c-2.6,0-4.2-0.6-4.9-1.8c-0.4-0.8-0.6-1.3-0.8-1.6
		c-0.3-0.2-0.4-0.5-0.4-0.7c0-0.4,0.2-0.6,0.7-0.6c0.3,0,0.7,0.1,1.3,0.2c1,0.4,1.9,0.6,2.7,0.6c0.9,0,1.9-0.4,2.8-1.1
		c1.8-1,3-2,3.6-3.1c0.3-0.4,0.6-1.1,0.9-2c-0.5-0.4-1.2-1-1.8-1.5c-0.8-0.7-1.5-1.1-2-1.1c-0.3-0.1-0.5-1.4-0.5-3.7
		c0-1.6,0.3-2.4,0.9-2.4c0.4,0,0.8,0.5,1.3,1.6c0.5,1.2,1.3,2.4,2.6,3.5c0.1,0.1,0.2,0.2,0.4,0.4c0.2-1.1,0.5-2.3,0.7-3.6
		c0.3-1.6,0.5-3.8,0.8-6.6c-0.2,0-0.4,0-0.6,0c-2.8,0.6-5.3,1.5-7.3,2.8c-0.2,0-0.6-0.4-1-1.3c-0.4-1.3-0.7-2.1-0.7-2.3
		c0-0.4,0.3-0.7,0.8-0.9c1.4-0.1,3.2-0.5,5.5-1.4c1.1-0.3,2.4-0.6,3.7-1c0.2-2.5,0.4-5.3,0.6-8.5c0-0.4-0.1-1-0.2-1.7
		c-0.2-0.5-0.3-0.9-0.3-1.1c0-0.4,0.4-0.6,1.1-0.6c0.7,0,1.4,0.2,2.1,0.7c0.5,0.2,0.8,0.4,0.8,0.7c0,0.2-0.1,0.5-0.2,0.8
		c-0.3,0.4-0.5,1.6-0.6,3.6c0,1.5-0.1,3.4-0.3,5.5c1.2-0.2,2.2-0.5,3-1c0.7-0.4,1.3-0.6,1.6-0.6c0.5,0,1.1,1.7,1.7,5.1
		c0,0.4-0.3,0.7-0.8,0.7L762.2,768.2 M761.2,812.6c0.2,0,0.3,0.7,0.4,2.1c0,1-0.2,1.6-0.6,1.8c-2.1,1.6-3.7,2.8-4.8,3.4
		c-0.1,1.5-0.2,2.9-0.3,4.2c2.5-0.8,4.6-1.7,6.4-2.7c0.3,0.1,0.9,1.7,1.8,5.1c-0.1,0.7-0.3,1.1-0.8,1.1c-2.9,0.3-5.3,0.7-7.3,1
		c0.6,1.5,2.1,3.8,4.4,6.9c3.1,3.9,5.4,6.5,7.1,7.8c1.2,0.7,2.2,1.5,3.1,2.6c0.7,0.7,1.1,1.2,1.1,1.6c-0.1,0.4-0.4,0.6-0.9,0.6
		c-2.8,0-5.1-0.3-7-0.8c-1.1-0.4-1.7-1.1-1.8-2.1c0-1.4-0.2-2.5-0.6-3.1c-1.5-3.1-3.6-6-6.4-8.7c-0.1-0.1-0.3-0.2-0.4-0.3
		c-0.5,2-1.1,3.6-1.8,4.8c-0.7,1.4-1.2,2.9-1.4,4.5c-1.5,1.7-3.1,3-4.6,3.9c-1.2,0.4-2.2,0.6-3,0.6c-1,0-1.5-0.2-1.5-0.7
		c0-0.1,0.4-0.4,1.1-1c2.8-2.2,5.1-4.7,6.8-7.4c1.2-2.1,2.1-4.9,2.7-8.3c-0.7,0.2-1.3,0.4-1.9,0.7c-1.6,0.6-2.8,0.9-3.7,0.9
		c-0.4,0-1-1.3-1.9-3.8c0-0.5,0.2-0.8,0.6-0.9c2.8-0.4,5.3-0.8,7.5-1.4c0.2-1.3,0.3-2.8,0.4-4.4c0,0-0.1,0-0.1,0
		c-0.6-0.1-0.9-0.1-1.1-0.1c-0.3,0.1-0.8,0.3-1.5,0.5c-0.6,0.4-1.2,0.7-1.5,0.8c-0.2,0-0.4-0.5-0.5-1.5c0-0.9-0.2-1.7-0.3-2.4
		c-0.2-0.6-0.4-1.2-0.4-1.7c0-0.4,0.2-0.7,0.4-0.8l3.8,0.2c0.5,0,0.9,0,1.4-0.1c0-1.4,0-2.9,0-4.4l-0.4-7.9c0.2-0.7,0.5-1,1.1-1
		c2,0.2,2.9,0.6,2.9,1.3c-0.4,2.3-0.7,5.6-1,9.7c0,0.6,0,1.2-0.1,1.7c0.8-0.3,1.6-0.7,2.4-1.1C760.2,812.9,760.9,812.6,761.2,812.6"
		/>
	<path id="text3724" d="M756.9,372.2c0.5,0,1.2-0.1,2.3-0.2c0.2-0.5,0.4-1,0.7-1.6c0.4-0.9,0.6-1.3,0.7-1.3c0.2,0,0.3,0.3,0.4,0.8
		c-0.1,0.7-0.2,1.3-0.3,1.9c0.5-0.1,1-0.2,1.5-0.3c0.3-0.1,0.7-0.1,1-0.2c-0.1-0.6-0.2-1.3-0.4-2.1c0-0.2,0.3-0.3,0.8-0.4
		c0.3,0,0.6,0.7,1,1.9c1-0.3,2-0.8,2.9-1.4c0.2,0,0.4,0.3,0.7,1c0.3,0.9,0.5,1.5,0.5,1.6c0,0.3-0.2,0.6-0.6,0.7
		c-0.8,0-1.8,0.2-3,0.5c0.3,1.7,0.4,3.3,0.4,5c0,0.4-0.2,0.6-0.5,0.6c-0.2,0-0.5-0.1-1.1-0.4c-0.4-0.3-0.7-0.5-0.7-0.8
		c0.2-1.3,0.3-2.3,0.3-3c0-0.3,0-0.6-0.1-1c-1,0.2-2.1,0.4-3.3,0.7c-0.4,2.1-0.9,4.1-1.3,5.9c-0.1,0.7-0.3,1.1-0.6,1.1
		c-1.3-0.8-2-1.5-2-2c0-0.1,0.1-0.2,0.2-0.4c0.2-0.4,0.7-1.5,1.4-3.3c0-0.2,0.1-0.5,0.3-0.9c-0.4,0.1-0.7,0.2-1,0.3
		c-0.5,0.2-0.9,0.4-1.2,0.4c-0.3,0-0.6-1-1-2.9c0-0.4,0.2-0.7,0.5-0.7L756.9,372.2 M768.2,366.7h-0.5c-1.4,0.6-2.4,1-3.1,1.1
		c-0.5,0.2-0.8,0.2-0.8,0.2c-0.3,0-0.5-0.2-0.9-0.7c-0.3-0.5-0.5-0.9-0.5-1.3c0-0.1,0.1-0.3,0.2-0.5c0.2-0.3,0.5-1.4,0.9-3.3
		c0.1-0.5,0.2-0.8,0.3-0.9c0.2,0,0.3,0.1,0.6,0.2c0.2-0.1,0.3-0.1,0.5-0.2c-0.1-0.1-0.3-0.2-0.5-0.4c-0.4-0.4-0.5-0.6-0.5-0.7
		c0-0.1,0.1-0.3,0.3-0.6l1.3-1.9c-0.2,0-0.3-0.1-0.4-0.2c-0.1,0.3-0.2,0.5-0.5,0.7c-0.9,0.2-1.8,0.4-2.6,0.6
		c0.1,0.1,0.2,0.1,0.3,0.2c0.3,0.3,0.4,0.7,0.4,1.1c0,0.3-0.2,0.9-0.5,1.7c-0.2,0.5-0.4,0.8-0.5,0.9c0.1,0.4,0.2,0.9,0.3,1.4
		c0.3,1.5,0.4,2.6,0.4,3.1c0,0.5-0.1,0.8-0.3,0.8h-0.5c-1.4,0.7-2.5,1.1-3.2,1.2c-0.5,0.2-0.8,0.3-0.8,0.3c-0.3,0-0.6-0.2-1-0.7
		c-0.3-0.5-0.5-1-0.5-1.3c0-0.1,0.1-0.3,0.2-0.5c0.2-0.3,0.5-1.7,1-4c0.1-0.6,0.2-0.9,0.4-1c0.1,0,0.3,0.1,0.5,0.4
		c1.4-0.4,2.2-0.7,2.3-0.9c0.2-0.1,0.3-0.2,0.3-0.2c0.1,0,0.1,0,0.2,0.1c-0.1-0.5-0.3-0.9-0.5-1.2c-0.2-0.3-0.4-0.6-0.4-1.1
		c-2,0.5-3.1,0.7-3.3,0.8c-0.3-0.1-0.4-0.5-0.4-1.3c0-0.4,0.2-0.7,0.5-0.8c0.7-0.1,1.6-0.3,2.5-0.7c0.2-0.1,0.3-0.1,0.5-0.2
		c0-0.4,0-1,0.1-1.8v-0.1c-1.6,0.4-2.5,0.7-2.6,0.7c-0.3-0.1-0.4-0.6-0.4-1.5c0-0.4,0.2-0.7,0.7-0.8c0.6-0.1,1.3-0.3,2.1-0.6
		c0,0,0.1,0,0.2,0c0-0.6,0.1-1.2,0.1-1.7c-1.8,0.4-2.8,0.7-2.9,0.7c-0.3-0.1-0.4-0.5-0.4-1.4c0-0.4,0.2-0.7,0.7-0.8
		c0.6-0.1,1.4-0.2,2.2-0.5c0.2,0,0.3-0.1,0.4-0.1c0-0.8,0-1.5,0-1.9c-0.1,0-0.2,0-0.3,0c-0.8,0.1-1.5,0.2-2.1,0.4
		c-0.4,0.2-0.6,0.3-0.9,0.3c-0.2,0-0.5-0.8-0.8-2.5c0-0.3,0.1-0.4,0.4-0.4h1.2c0.5,0,1.8-0.1,3.7-0.3c1.5-0.2,2.7-0.6,3.7-1.1
		c0-2,0-3.3,0-4.1c0-0.4,0.4-0.6,1.1-0.6c0.6,0,0.9,0.1,0.9,0.4c-0.2,2.8-0.4,8.3-0.5,16.5c0.4-0.7,0.8-1.4,1-1.9
		c0.2-0.3,0.4-0.7,0.4-1.1c0-0.2,0.3-0.5,0.7-0.8c0.6-0.5,1.3-0.8,2.2-0.8c0.4,0,0.6,0.1,0.6,0.4c-1.2,1.1-2.3,2.5-3.3,4.3
		c-1.1,1.8-1.9,3.5-2.5,5.2c0,0,0,0,0,0c0.2-0.1,0.4-0.2,0.4-0.2c0.1-0.1,0.2-0.2,0.3-0.2c0.4,0,0.8,0.9,1.4,2.6
		c0.4,1.4,0.6,2.3,0.6,2.8C768.5,366.4,768.4,366.7,768.2,366.7 M765.1,346c-0.6,0.1-1.4,0.3-2.3,0.6c-0.2,0-0.5,0.1-0.7,0.1
		c0,0.5,0,1.2,0,1.9c0.7-0.1,1.4-0.3,2.2-0.6c0.3,0,0.4,0.5,0.4,1.4c0,0.4-0.2,0.6-0.6,0.8c-0.7,0.2-1.4,0.3-2.1,0.5v1.6
		c0.7-0.1,1.4-0.4,2.2-0.7c0.3,0,0.4,0.5,0.4,1.5c0,0.4-0.2,0.6-0.6,0.8c-0.8,0.2-1.5,0.4-2.1,0.6v2c0.8-0.1,1.7-0.4,2.5-0.7
		c0.2,0,0.3,0.2,0.4,0.6c0-0.6,0-1.4,0.1-2.3C765,350.9,765.1,348.2,765.1,346 M766.1,362.5c-0.2,0-0.6,0.2-1.2,0.6
		c-0.1,0-0.2,0.2-0.3,0.5c-0.1,0.5-0.1,1.1-0.1,1.6c0,0.7,0.1,1.1,0.3,1.1c0.3,0,0.6-0.2,1-0.5c0.5-0.3,0.8-0.7,0.8-1
		C766.6,363.3,766.4,362.5,766.1,362.5 M760.5,363.8c-0.2,0-0.7,0.1-1.6,0.4c-0.1,0-0.3,0.2-0.4,0.5c-0.1,0.6-0.2,1.3-0.2,1.9
		c0,0.6,0.1,1,0.4,1c0.2,0,0.6-0.1,1-0.4c0.6-0.4,0.9-0.7,0.9-1C760.6,364.6,760.6,363.8,760.5,363.8 M754.4,371.4
		c-0.2,0-0.5,0-0.7-0.1c-0.2,0.1-0.5,0.2-0.8,0.3c-2.1,1-3.8,1.5-4.9,1.5c-0.5,0-1.2-0.3-2-0.8c-0.6-0.4-0.9-0.9-0.9-1.2
		c0-0.4,0.1-0.9,0.3-1.7c0.2-1.2,0.5-6.5,1.1-15.9c0-0.1,0.3-0.2,1-0.2c0.7,0,1,0.1,1,0.4c0,0.4,0,0.9,0,1.3c1-0.1,2.1-0.4,3.2-0.7
		c-0.3-0.2-0.4-0.5-0.5-0.8c0-0.5,0.9-2.8,2.4-6.7c0.4-1,0.7-2.4,1-4.2c0.3-1,1-1.8,2.3-2.2c0.9-0.2,1.7-0.4,2.3-0.4
		c0.3,0,0.5,0.1,0.5,0.4c-2.3,2.2-3.9,4.8-5,7.8c-0.8,2.1-1.2,3.9-1.3,5.3c0.1-0.1,0.2-0.1,0.3-0.2c0.3-0.3,0.5-0.5,0.7-0.5
		c0.2,0,0.3,0.2,0.6,0.7c0.2,0.3,0.2,0.7,0.2,1.2c0,1.7,0,3.9,0,6.8c-0.1,2.4-0.1,4.9-0.1,7.6c0,0.3,0,0.6,0.1,1
		c0,0.3,0.1,0.5,0.1,0.6C755,371.1,754.8,371.4,754.4,371.4 M748.3,357.6c-0.1,3.9-0.2,7.6-0.2,10.9c0,1.5,0.4,2.3,1,2.3
		c1,0,2.2-0.6,3.7-1.9c0-0.7,0.1-1.5,0.2-2.4v0c-0.8,0.2-2.1,0.5-3.8,1c-0.2,0-0.2-0.5-0.2-1.4c0-0.3,0.2-0.5,0.5-0.7
		c0.9-0.6,1.6-0.9,2.2-1.1c0.4-0.1,0.9-0.4,1.5-0.8c0-0.8,0-1.6,0.1-2.3c-0.8,0.2-2.1,0.7-4,1.4c-0.2,0-0.2-0.5-0.2-1.6
		c0-0.2,0.2-0.4,0.5-0.6c0.9-0.6,1.6-1,2.2-1.2c0.4-0.1,1-0.4,1.7-0.9c0-0.4,0-0.7,0-0.9c0-0.7-0.1-1.1-0.3-1.1
		c-0.2,0-0.7,0.1-1.4,0.4C749.9,357.3,748.8,357.6,748.3,357.6 M749.6,353.6c-0.6,0-1-0.2-1.2-0.6c0-0.3,0.2-1.2,0.5-2.8
		c0.2-1.4,0.3-2.5,0.3-3.4c0-1.4-0.1-2.3-0.4-3c-0.4-0.6-1-1-1.8-1c-1.5,0-2.5,0.4-3.1,1.2c-0.4,0.7-0.6,1.7-0.6,3.3l0.2,5
		c0,0.3,0,0.4-0.1,0.4c-0.2,0-0.6-0.9-1.1-2.8c-0.6-2.7-0.9-4.8-1-6.4c-0.1-0.8-0.1-1.5-0.1-1.9c-0.1-0.3-0.1-0.5-0.1-0.7
		c0-0.4,0.2-0.6,0.5-0.6c0.8-0.2,1.7-0.4,2.8-0.7c0.7-0.2,1.4-0.3,2.2-0.3c1.2,0,2.2,0.7,3.1,2c0.8,1.3,1.1,3.1,1.1,5.6
		c0,1.9-0.1,3.8-0.4,5.7C750.4,353.2,750.1,353.6,749.6,353.6 M760,316.9c-0.2-0.1-0.4-0.5-0.4-1.4c0-0.9,0.3-1.6,0.8-2.3
		c0.9-0.6,1.7-1.2,2.6-1.6c0-0.5,0-1.1,0-1.6c-1-0.2-2.1-0.9-3.4-1.9c-0.3-0.3-0.5-0.8-0.5-1.4c0.2-2.3,0.5-3.4,0.9-3.4
		c0.2,0.1,0.5,0.4,0.9,1.1c0.5,1,1.2,2,2.2,3.1v-1.2c0-9.5-0.1-15.9-0.4-19.2c0-0.8,0.2-1.2,0.7-1.2c0.1,0,0.4,0.2,1.1,0.7
		c0.6,0.3,0.9,0.8,0.9,1.5c0,0.2-0.1,1-0.3,2.3c0,1.5,0,6.3-0.1,14.4l4.3-7c0.9-1.5,1.6-2.3,1.9-2.3c0.2,0,0.4,0.1,0.8,0.4
		c0.2,0.2,0.3,0.4,0.3,0.7c0,0.4-0.2,0.8-0.5,1.1c-1.2,1.4-2.4,3.4-3.6,6.1c-1.1,2.3-2,4.6-2.7,6.9c1.1-0.4,2.3-1.1,3.7-2.1
		c0.3,0,0.6,0.8,0.8,2.5c0.2,1.2,0.3,1.9,0.3,2.2c0,0.6-0.3,0.9-0.8,0.9c-1.1,0.1-2.6,0.4-4.4,0.9v9.3l0.2,3.5c0,0.6-0.3,1-0.6,1.3
		c-0.3-0.1-0.9-0.4-1.7-1.1c-0.7-0.7-1.1-1.2-1.1-1.6c0-0.2,0.1-0.5,0.3-0.8c0.2-0.4,0.4-1.2,0.6-2.4c0.1-1.6,0.2-4.1,0.3-7.5
		c-0.6,0.2-1.1,0.5-1.7,0.7C760.6,316.7,760.2,316.9,760,316.9 M745.7,319.3c-0.3,0-0.4-0.8-0.4-2.3c0-0.3,0.3-0.5,0.8-0.8
		c0.7-0.3,1.4-0.5,2-0.8c0.3-6.7,0.4-11.3,0.5-13.8c-1.5,0.2-3,0.4-4.4,0.6c-0.4,0.2-0.9,0.2-1.4,0.2c-0.1-0.6-0.3-1.2-0.5-1.7
		c-0.3-0.9-0.5-1.8-0.5-2.5c0.1-0.5,0.2-0.8,0.4-0.9c0.1,0,0.5,0.2,1.2,0.6c0.8,0.5,1.4,0.7,2,0.7c2.2,0,5.2-0.2,9-0.7
		c3.3-0.4,5.8-0.9,7.5-1.5c0.3,0,0.6,1.1,0.9,3.2l-0.5,0.4h-0.9c-1.5,0.2-3,0.4-4.5,0.6c0,5.2,0.1,9.4,0.2,12.7
		c0.4-0.1,0.8-0.3,1.2-0.4c0.3,0,0.5,0.4,0.7,1.2c0.2,0.6,0.2,1.2,0.2,1.7c0,0.4-0.2,0.6-0.6,0.6c-0.3,0-0.8,0.1-1.5,0.2
		c0.1,1.7,0.2,3,0.3,3.9c0.1,1,0.2,1.8,0.3,2.5c0,0.4-0.5,0.6-1.6,0.6c-0.8,0-1.2-0.3-1.2-1c0-1.7,0-3.6,0-5.5
		c-1.2,0.3-2.6,0.6-4.3,1c0,2.7-0.1,5.7-0.1,9c0,0.5-0.3,0.8-1,0.8c-1.4,0-2.1-0.4-2.1-1.2c0.3-1.1,0.4-2.6,0.5-4.6
		c0.1-1.2,0.1-2.3,0.2-3.4C747.3,319,746.5,319.2,745.7,319.3 M754.7,301c-1.3,0.1-2.6,0.3-3.8,0.5c-0.1,3-0.2,7.5-0.3,13.4
		c0.8-0.2,1.4-0.3,2-0.4c0.7-0.1,1.4-0.2,2.2-0.4c0-0.9,0-1.7,0-2.5c-0.7,0.1-1.8,0.4-3.1,0.7c-0.2,0-0.3-0.7-0.3-2.1
		c0-0.2,0.2-0.4,0.7-0.6c0.7-0.4,1.3-0.6,1.8-0.7c0.3-0.1,0.6-0.2,1-0.3c0-0.7,0-1.4,0-2.1c-0.7,0.2-1.7,0.5-3.1,0.9
		c-0.2,0-0.3-0.7-0.3-2c0-0.2,0.2-0.5,0.7-0.7c0.7-0.3,1.3-0.6,1.7-0.7c0.3,0,0.6-0.1,1-0.3C754.7,302.7,754.7,301.9,754.7,301
		 M755,296.8c-0.3,0-0.5-0.1-0.5-0.4c0.8-2.2,1.3-3.6,1.5-4.4c0.2-0.8,0.4-1.6,0.6-2.2c0.2-0.6,0.3-1.2,0.4-1.8
		c0.1-0.5,0.2-0.8,0.4-0.8c0.4,0,0.8,0.6,1.3,1.6c0.7,1.2,1,2,1,2.5c0,0.2-0.2,0.5-0.5,0.7c-0.4,0.3-0.8,0.8-1.1,1.3
		C757.7,294.1,756.6,295.2,755,296.8 M750.5,297c-0.2,0-1.3-0.6-3.1-1.9c-0.6-0.5-1.1-0.8-1.5-1c-0.2-0.3-0.4-1.6-0.4-3.7
		c0-0.6,0.1-1.3,0.4-2.2c0.2-0.7,0.4-1.1,0.6-1.1c0.2,0,0.4,0.3,0.5,0.8c1,2.8,2,5.2,3.2,7.3c0.4,0.5,0.5,0.9,0.6,1.2
		C750.9,296.8,750.8,297,750.5,297 M750.1,266.7c1,0,2.2-0.1,3.5-0.2c0.1-0.2,0.2-0.4,0.3-0.7c0.5-0.9,0.8-2.2,1-4
		c0.6-10.1,1-16.8,1-20.2c0-0.9,0-1.7-0.1-2.5c-0.1-1-0.2-1.8-0.2-2.5c0.1-0.5,0.5-0.8,1.2-0.8c1.2,0,1.9,0.4,2,1.2
		c0,0.4,0,0.8-0.1,1c0,0.4,0,0.9,0,1.5v18.9l7.2-10.7c1.5-2.2,2.6-3.3,3.2-3.3c0.3,0,0.7,0.3,1.3,0.8c0.4,0.4,0.5,0.8,0.5,1.3
		c0,0.5-0.3,1-1,1.6c-2,1.9-4.1,4.6-6.3,8.3c-1.9,3.1-3.4,6.3-4.5,9.4c3.2-0.6,5.5-1.4,7.2-2.3c0.4,0,0.8,1.6,1.3,4.9l-0.8,0.2h-1.3
		c-6.9,1.4-12.7,2.6-17.4,3.5c-0.4,0.3-0.9,0.4-1.5,0.4c-0.2-0.9-0.5-1.7-0.8-2.6c-0.5-1.3-0.7-2.5-0.8-3.6c0.1-0.8,0.3-1.2,0.5-1.3
		c0.2,0,0.7,0.3,1.7,0.8C748.2,266.5,749.2,266.7,750.1,266.7 M754,257.9c-1.6-1-3-1.7-4.4-2.4c-1.4-0.7-3-1.9-4.8-3.6
		c-0.2-0.5-0.3-1.1-0.3-1.6c0.3-3.9,0.9-5.8,1.6-5.8c0.2,0,0.5,0.3,0.6,1c1,2.3,3.5,6.3,7.5,11.9C754.2,257.8,754.1,257.9,754,257.9
		 M764.4,222.8c-0.3-0.2-0.6-0.8-0.8-1.7c-0.3-0.9-0.8-1.7-1.4-2.6c-0.6-1-0.9-2.1-0.9-3.1c0.1-0.9,0.4-1.3,0.9-1.3
		c0.9,0.5,1.7,0.8,2.4,1c0.7,0.2,1.1,1.1,1.1,2.7c0,1.5-0.2,2.8-0.5,3.8C764.9,222.3,764.7,222.7,764.4,222.8 M759.4,212.9
		c-0.3,0-0.4-0.7-0.4-2c0-0.3,0.2-0.6,0.6-0.8c2.2-1.1,4.1-1.7,5.6-2c1.3-0.2,2.9-0.8,4.8-1.7c0.3,0,0.6,0.4,0.8,1.3
		c0.2,0.7,0.2,1.4,0.2,2c0,0.4-0.2,0.6-0.5,0.6C769.5,210.4,765.8,211.2,759.4,212.9 M761,207c-0.3-0.1-0.5-0.7-0.5-1.8
		c0-0.6,0.3-0.9,0.8-1.1c0.6-0.1,1.4-0.3,2.2-0.7c0.7-0.3,1.3-0.5,1.9-0.6c0.8-0.2,1.6-0.5,2.5-1c0.3,0,0.5,0.6,0.5,1.8
		c0,0.6-0.2,1-0.6,1.3C763.4,206.2,761.2,206.9,761,207 M761.2,201.6c-0.3-0.1-0.5-0.6-0.5-1.6c0-0.5,0.3-0.9,0.8-1.1
		c0.6-0.1,1.3-0.3,2.1-0.6c0.7-0.2,1.3-0.4,1.8-0.5c0.8-0.2,1.6-0.4,2.4-0.8c0.3,0,0.5,0.5,0.5,1.6c0,0.5-0.2,0.8-0.5,1
		C763.5,201,761.3,201.6,761.2,201.6 M768.7,194.7l-0.8-0.2c-2.2,0.9-3.9,1.4-5.1,1.5c-0.8,0.2-1.3,0.4-1.3,0.4
		c-0.4,0-0.9-0.4-1.4-1.1c-0.5-0.7-0.7-1.2-0.7-1.7c0-0.2,0.1-0.5,0.3-0.8c0.3-0.5,0.7-2.3,1.4-5.4c0.2-0.8,0.3-1.3,0.5-1.4
		c0.3,0,0.6,0.2,0.9,0.6c2-0.6,3.2-1.1,3.5-1.5c0.2-0.2,0.4-0.4,0.5-0.4c0.5,0.1,1.1,1.5,1.8,4.4c0.6,2.3,0.9,3.9,0.9,4.7
		C769.1,194.3,768.9,194.7,768.7,194.7 M765.9,188.3c-0.4,0-1.3,0.3-2.7,0.9c-0.1,0-0.3,0.3-0.4,0.7c-0.1,0.8-0.2,1.6-0.2,2.5
		c0,1,0.1,1.5,0.4,1.5c0.5,0,1.1-0.2,1.9-0.6c1-0.5,1.5-0.9,1.5-1.3C766.5,189.5,766.2,188.3,765.9,188.3 M746.9,220.3
		c-0.2-0.1-0.4-0.7-0.4-1.7c0-0.9,0.3-1.6,0.8-2.3c1.2-0.4,2.3-0.8,3.4-1c0.1-1,0.3-2.5,0.6-4.6c-2,0.5-3.2,0.8-3.4,0.8
		c-0.3,0-0.9-0.3-1.7-0.8c-0.8-0.5-1.1-1-1.1-1.5c0-0.2,0.1-0.6,0.4-1.2c0.4-1.2,0.8-3.3,1.5-6.1c-1,0.2-1.9,0.4-2.7,0.7
		c-0.7,0.3-1.3,0.4-1.7,0.4c-0.4,0-0.8-1.3-1.3-3.9c0-0.4,0.3-0.6,0.7-0.6l1.7,0.1c1.2,0,3.7-0.2,7.7-0.6c3-0.4,5.6-1.1,7.8-2
		c0.2,0,0.5,0.4,0.8,1.1c0.4,1.1,0.6,1.7,0.6,1.9c0,0.3-0.2,0.5-0.6,0.6c-1.1,0-2.4,0.2-4,0.6c0,0.1-0.1,0.2-0.1,0.4
		c-0.4,1.1-0.7,3.2-1.2,6.3c0.1,0,0.1-0.1,0.2-0.1c1.6-1,2.6-1.4,3-1.4c0.2,0,0.4,0.5,0.4,1.5c-0.1,1.5-0.3,2.3-0.8,2.5
		c-0.7,0-1.7,0.2-3.2,0.6c-0.3,2.1-0.4,3.7-0.4,4.7c1-0.2,2.1-0.6,3.3-1c0.3,0,0.5,0.7,0.6,1.9c0.1,0.9,0.2,1.5,0.2,1.7
		c0,0.6-0.2,0.9-0.7,0.9c-2.1,0.1-5.1,0.6-9,1.6C747.5,220.1,747.1,220.2,746.9,220.3 M752.9,201c-1,0.2-2.1,0.3-3.2,0.5
		c-0.5,2.8-0.8,4.7-0.8,5.6s0.2,1.4,0.6,1.4c0.7-0.2,1.4-0.4,2.1-0.6C752,205.3,752.4,203,752.9,201 M749.7,195.9
		c-1.3,0-2.5-0.5-3.5-1.5c-0.8-0.8-1.2-1.4-1.2-1.8c0-0.7,0.2-1.3,0.5-1.8c1-1.7,1.7-4.1,2.1-7.2c0.1-0.5,0.3-0.8,0.5-0.8
		c0.2,0,0.5,0.2,1.2,0.6c0.6,0.3,1.3,0.4,2,0.4c0.6,0,1.6-0.2,2.7-0.5c0.6-0.3,1-0.5,1.4-0.5c0.3,0,0.5,0.3,0.6,0.8
		c0.3,1.3,0.6,2.6,1,3.7c0.5,1.4,0.9,2.6,1.1,3.7c0.2,0.8,0.3,1.3,0.3,1.7c0,0.6-0.4,1-1.2,1.3C753.9,195.3,751.4,195.9,749.7,195.9
		 M754.1,186.7c-1.2,0-2.4,0.3-3.7,1c-0.4,0.2-0.8,0.7-1,1.6c-0.3,1-0.4,1.9-0.4,2.7c0,1,0.4,1.5,1.1,1.5c1.2,0,2.6-0.4,4.1-1.2
		c0.4-0.3,0.6-0.7,0.6-1.3c0-0.5-0.1-1.6-0.3-3.2C754.5,187,754.4,186.7,754.1,186.7 M750.8,164.1c0.9,0,2.7-0.2,5.3-0.5
		c0.3-1.4,0.7-2.6,1.2-3.4c-1.5,0.3-2.8,0.5-3.8,0.5c-0.5,0-1.3-0.3-2.3-0.9c-0.7-0.5-1-1-1-1.4c0-0.4,0.1-0.9,0.2-1.7
		c0.2-1.2,0.4-6.2,0.8-14.9c-1.9,0.3-3.8,0.6-5.5,0.9c-0.5,0.3-1.2,0.4-1.9,0.4c-0.2-0.7-0.4-1.4-0.6-2.1c-0.4-1.1-0.7-2.1-0.7-3
		c0.1-0.6,0.2-0.9,0.4-1c0.2,0,0.6,0.2,1.4,0.6c0.9,0.5,1.7,0.8,2.4,0.8c2.9,0,6.7-0.3,11.4-0.9c0-0.3,0.2-0.7,0.4-1.3
		c0.4-1.3,1-2.5,1.7-3.7c0.4-0.6,0.6-1.4,0.7-2.4c0.2-0.9,0.7-1.5,1.6-1.7c1.5-0.7,2.9-1.1,4.1-1.1c0.9,0,1.3,0.2,1.3,0.7
		c0,0.2-0.3,0.5-0.9,0.9c-2.3,1.6-3.9,3.1-4.7,4.5c-0.6,1.1-1.1,2.4-1.4,3.7c3.5-0.6,6.1-1.3,8.1-2.1c0.3,0,0.7,1.3,1.1,3.8
		l-0.7,0.2h-1.1c-2,0.3-3.9,0.6-5.7,0.9v0.2c0,7.6,0.3,13.5,0.8,17.6c-0.1,1.1-0.2,1.6-0.5,1.6c-0.2,0-0.6-0.2-1.1-0.6
		c-0.2,0.2-0.6,0.3-1,0.4c-0.5,0.1-1,0.3-1.6,0.4c-0.1,0.3-0.1,0.7-0.2,1.1c-0.2,0.7-0.4,1.5-0.6,2.4c2.2-0.5,4.1-1.2,5.7-2.1
		c0.3,0,0.6,0.4,1,1.2c0.4,1.3,0.7,2,0.7,2.2c0,0.4-0.2,0.7-0.7,0.9c-1.3,0-2.9,0.3-5,0.9c-0.7,0.1-1.4,0.2-2.1,0.4
		c-0.2,1.5-0.4,3.3-0.6,5.3c-0.1,0.6-0.3,1-0.7,1c-0.3,0-0.9-0.2-1.6-0.7c-0.7-0.6-1.1-1-1.1-1.4c0-0.3,0.1-0.6,0.3-0.8
		c0.2-0.6,0.5-1.5,0.8-2.8c-0.1,0-0.2,0.1-0.4,0.1c-1.4,0.1-2.7,0.3-3.7,0.7c-0.6,0.3-1.2,0.4-1.5,0.4c-0.4,0-0.8-1.3-1.3-3.9
		c0-0.4,0.3-0.6,0.7-0.6L750.8,164.1 M760.4,140.3c-2.4,0.4-4.7,0.8-6.8,1.1c0.1,5.2,0.1,10,0.1,14.3c0,1.6,0.4,2.5,1.1,2.5
		c1.5,0,3.5-0.7,5.9-2.1c0-0.1,0-0.3,0-0.4c0-0.4,0-0.8,0-1.2c-3.3,0.8-5,1.3-5.1,1.3c-0.4-0.1-0.5-0.7-0.5-1.8c0-0.5,0.3-0.9,0.8-1
		c0.5-0.1,1.1-0.2,1.8-0.5c0.5-0.2,1.1-0.3,1.6-0.4c0.4-0.1,0.9-0.2,1.4-0.4c0-0.6,0-1.2,0-1.8c-3.4,0.8-5.1,1.1-5.3,1.1
		c-0.3-0.1-0.5-0.7-0.5-1.8c0-0.5,0.3-0.8,0.8-1c0.5-0.1,1.2-0.2,1.9-0.5c0.6-0.2,1.2-0.3,1.7-0.4c0.5-0.1,0.9-0.2,1.4-0.4V145
		c-3.4,0.8-5.2,1.2-5.4,1.2c-0.3-0.1-0.5-0.7-0.5-1.9c0-0.5,0.3-0.8,0.8-1c0.6-0.1,1.2-0.3,1.9-0.5c0.6-0.2,1.1-0.3,1.6-0.4
		c0.5-0.1,1-0.2,1.5-0.4C760.4,141.3,760.4,140.7,760.4,140.3 M754.4,136.8c-0.6-0.2-1.7-0.7-3.1-1.4c-1.4-0.6-2.5-1.8-3.5-3.3
		c-0.1-0.3-0.1-0.6-0.1-1c0.3-2.7,0.9-4.1,1.7-4.1c0.4,0,0.7,0.4,1,1.2c1.1,2.7,2.4,5.2,4.1,7.4c0.2,0.3,0.4,0.6,0.4,0.8
		C754.9,136.6,754.7,136.8,754.4,136.8 M750.8,116c-0.3,0-0.9-0.3-1.7-0.8c-0.8-0.5-1.2-1.1-1.2-1.6c0-0.4,0.2-1,0.5-1.8
		c0.2-0.7,0.4-1.5,0.7-2.6c-1.1,0.2-2.2,0.4-3.3,0.6c-0.5,0.3-1.2,0.5-1.9,0.5c-0.2-0.7-0.3-1.3-0.6-2c-0.4-1-0.6-2-0.6-2.9
		c0.1-0.5,0.2-0.7,0.4-0.8c0.1,0,0.5,0.2,1.3,0.6c0.8,0.4,1.6,0.6,2.3,0.6c1,0,2-0.1,3.1-0.2c0.3-1.3,0.6-2.7,0.9-4.2
		c0,0-0.1,0.1-0.1,0.1c-0.3,0-0.4-0.8-0.4-2.5c0-0.4,0.3-0.7,0.8-1c2.7-0.9,5-1.4,6.9-1.6c0.4-0.1,0.8-0.1,1.3-0.2
		c0.5-1.7,1.2-3.4,1.9-5.3c-3.8,1.3-6.6,1.9-8.5,1.9c-1.4,0-2.6-0.5-3.7-1.5c-0.8-0.8-1.2-1.5-1.2-2c0-0.7,0.2-1.4,0.5-1.9
		c1.1-1.7,1.8-4.2,2.2-7.4c0.1-0.7,0.3-1.1,0.5-1.1c0.2,0,0.6,0.2,1.2,0.6c0.7,0.3,1.4,0.5,2.1,0.5c0.9,0,2.2-0.2,3.9-0.7
		c0.8-0.4,1.5-0.6,2-0.6c0.2,0,0.4,0.3,0.6,0.8c0.3,1.4,0.6,2.7,1.1,3.9c0.4,1.2,0.7,2.2,0.9,3.2c1-0.9,2-1.6,3.2-2.3
		c1.6-1.3,3.3-1.9,5.1-1.9c0.2,0,0.3,0.1,0.3,0.2c0,0.6-1.1,1.9-3.3,3.9c-2.9,2.9-5,6-6.3,9.2c0.7-0.2,1.5-0.4,2.3-0.6
		c0.3,0,0.6,0.4,0.8,1.2c0.2,0.6,0.3,1.2,0.3,1.8c0,0.4-0.2,0.6-0.6,0.6c-0.6,0.1-2,0.3-4.1,0.7c-0.5,1.7-0.8,3.3-1,4.8
		c4.3-0.9,7.6-2,9.8-3.4c0.3,0,0.7,1.4,1,4.3l-0.8,0.2h-1.1c-3.3,0.7-6.4,1.3-9.3,1.9c0,0.4,0,0.8,0,1.2c0,0.8,0.2,1.6,0.5,2.5
		c0,0.1,0.1,0.3,0.1,0.4c0.2-0.1,0.3-0.1,0.5-0.2c2.3-1,3.6-1.5,4.1-1.5c0.3,0,0.4,0.5,0.4,1.5c-0.1,1.6-0.4,2.5-1,2.6
		c-1.3,0-3.9,0.5-7.9,1.5C752.7,115.8,751.1,116,750.8,116 M758,100c-1.3,0.3-2.7,0.6-4.4,0.9c-0.3,1.7-0.6,3.2-0.9,4.5
		c1.4-0.2,2.8-0.4,4.3-0.7C757.3,103.3,757.6,101.7,758,100 M756.1,112.2c-0.4-0.3-0.7-0.6-0.7-0.9c0-0.3,0.2-0.8,0.5-1.6
		c0.2-0.4,0.4-1.1,0.6-2.1c-1.5,0.3-3,0.6-4.3,0.9c-0.2,1.2-0.2,2.1-0.2,2.8c0,1.1,0.3,1.6,0.8,1.6
		C753.9,112.8,755,112.5,756.1,112.2 M758.5,82.9c-1.7,0-3.5,0.4-5.3,1.2c-0.5,0.2-0.8,0.8-1.1,1.6c-0.3,1.1-0.4,2-0.4,2.9
		c0,1.1,0.4,1.6,1.2,1.6c1.6,0,3.4-0.5,5.6-1.4c0.6-0.4,0.8-1,0.8-1.6c0-0.5-0.1-1.6-0.3-3.2C758.9,83.2,758.8,82.9,758.5,82.9
		 M753.1,63.1c-0.7,0-1.8-0.7-3.3-2.2c-0.9-1-1.4-1.9-1.4-2.7c0-0.4,0.3-0.9,0.9-1.6c1.4-1,3.5-3,6.2-5.8c-0.4-1-0.7-1.9-0.9-2.8
		c-3.3,0.7-6.2,1.3-8.9,1.9c-0.6,0.3-1.2,0.5-1.9,0.5c-0.2-0.8-0.4-1.6-0.7-2.4c-0.4-1.2-0.7-2.3-0.8-3.4c0.1-0.6,0.3-0.9,0.5-1
		c0.2,0,0.7,0.3,1.6,0.8c1,0.6,1.8,0.9,2.6,0.9c2,0,4.3-0.2,7.2-0.7c-0.1-1.3-0.1-2.8-0.1-4.5c0-3.5,0.1-6.6,0.3-9.3
		c0.2-2.4,0.3-4.2,0.5-5.3c0.1-0.7,0.2-1.5,0.3-2.2c0.1-0.8,0.2-1.2,0.3-1.2c0.4,0,0.7,0.1,1,0.3c0.4,0.2,1,0.4,1.7,0.5
		c1.2,0.2,2.4,1.1,3.6,2.6c1.8,2.4,2.7,3.9,2.7,4.6c0,0.2-0.1,0.4-0.4,0.4c-0.4,0-1-0.4-1.7-1.3c-1.8-1.2-3.1-1.7-3.9-1.7
		c-0.4,0-0.7,0.9-1,2.8c-0.4,1.8-0.6,5.1-0.6,9.9c0,1.5,0.1,2.8,0.2,4c0.6-0.1,1.2-0.2,1.9-0.3c4.3-0.9,7.6-2,9.8-3.3
		c0.3,0,0.7,1.4,1,4.3l-0.8,0.3h-1.1c-3.7,0.8-7.1,1.5-10.3,2.3c0,0,0,0,0,0.1c0.6,1.8,1.2,2.8,2,3.2c0.4,0.2,0.6,0.5,0.6,0.8
		c0,0.3-0.3,0.8-0.9,1.3c-0.6,0.5-1.2,0.7-1.9,0.7c-0.3,0-0.6-0.3-0.9-0.8c-0.1-0.1-0.2-0.3-0.2-0.4c-2,4-3.1,6.3-3.1,7.2
		c0,1,0.4,1.5,1.2,1.5c0.7-0.1,1.9-0.9,3.5-2.2c1.8-1.4,3.2-2.6,4.2-3.8c0.3-0.4,0.6-0.6,0.9-0.6c0.3,0,0.8,0.9,1.3,2.7
		c0.6,1.3,0.8,2,0.8,2.4c0,0.3-0.3,0.5-0.8,0.6c-1,0.1-2.8,0.7-5.4,1.7C756.2,62.6,754.3,63.1,753.1,63.1"/>
	<path id="text3728" d="M-6.2,369.9c-0.4,0-0.6-1-0.6-2.9c0-0.5,0.4-0.9,1.1-1.3c0.8-0.4,1.6-0.8,2.3-1c0-1.6,0.1-2.8,0.1-3.7
		c-1.3,0.4-2.7,1-4.1,1.5c-0.3,0-0.5-0.8-0.5-2.5c0-0.4,0.3-0.7,0.8-1c1.4-0.7,2.6-1.2,3.8-1.6c0-1.2,0-2.4,0-3.6
		c-0.7,0.2-1.8,0.5-3.3,0.9c-0.4,0-0.5-0.8-0.5-2.4c0-0.4,0.3-0.7,0.8-1.1c0.7-0.4,1.3-0.7,1.9-0.9c0.4-0.1,0.8-0.3,1.3-0.6
		c0-0.9,0.1-1.9,0.1-2.8c-0.6-0.3-1.4-0.5-2.5-0.8c-1.6-0.5-3.8-1.9-6.6-4c-1.4-1.1-2.7-1.8-4-2c-0.7-0.2-2.1-0.7-4.1-1.5
		c-1.2-0.5-2.3-1.2-3.2-2c0-1,1.8-1.5,5.3-1.5c2.2,0.4,4,0.7,5.2,0.7c0.8,0,1.2,0.4,1.3,1.1c0.1,1.4,0.6,2.4,1.6,3.1
		c1,0.7,2,1.3,3.2,1.8c1,0.3,3.3,1.4,6.8,3.3c1,0.5,1.7,0.7,2.2,0.7c0.1,0,0.1,0.1,0.2,0.2c0-0.1,0-0.1,0.1-0.2
		c0.3-0.9,0.5-1.9,0.6-3.2c0.1-1.2,0.6-1.9,1.3-2.4c1.3-0.9,2.5-1.3,3.5-1.3c0.7,0,1,0.1,1,0.4c0,0.3-0.2,0.7-0.7,1.2
		c-2,2.2-3.3,4.2-4,6c-0.7,1.9-1.1,4.1-1.4,6.5c0,0.7-0.1,1-0.3,1c-1.2,0-1.9-0.4-1.9-1.1c0-0.4,0.1-1.1,0.3-2.1c0-0.1,0-0.2,0-0.3
		c-0.2-0.2-0.5-0.4-0.7-0.7c-0.3-0.5-0.7-0.9-1.2-1.4v8.2c0.3-0.1,0.6-0.2,0.8-0.2c1.6-0.4,3.7-1.1,6.1-2.2c0.3,0,0.6,0.4,0.8,1.2
		c0.2,0.7,0.2,1.3,0.2,1.8c0,0.4-0.2,0.6-0.5,0.6c-1,0.1-3.5,0.9-7.5,2.4c0,1,0,2.3,0,3.8c0.8-0.2,1.8-0.6,2.9-1.2
		c0.4,0,0.7,0.5,0.9,1.4c0.2,0.8,0.3,1.5,0.3,2.2c0,0.6-0.2,0.9-0.6,0.9c-0.5,0.1-1.7,0.4-3.5,0.9c0,2.7,0,5.9,0,9.5
		c0,0.6-0.3,0.9-0.9,0.9c-1.4,0-2.2-0.4-2.2-1.3c0.2-0.7,0.3-1.7,0.3-3.1c0.1-1.9,0.2-3.6,0.2-5.1C-4.3,369.3-5.2,369.6-6.2,369.9
		 M-14.1,368.2c-0.5,0-1.2-0.4-2.3-1.2c-1.2-0.9-1.7-1.5-1.7-2c0-0.1,0.2-0.4,0.5-0.8c0.4-0.6,1-2,1.8-4.1c-0.2-0.4-0.2-1-0.2-1.7
		c0-0.6,0.3-1.1,1-1.3c0.5-0.1,1.1-0.2,1.7-0.5c0.5-0.2,1-0.3,1.5-0.4c0.5-0.1,1-0.3,1.5-0.5c0.1-1.6,0.2-2.9,0.2-3.9
		c0-1-0.2-1.8-0.5-2.3c-0.4-0.5-1.5-0.8-3.2-0.8c-1.5,0-2.4,0.2-2.7,0.8c-0.4,0.6-0.7,2.4-0.7,5.6c0,0.3,0,0.4-0.1,0.4
		c-0.2,0-0.5-0.4-0.9-1.3c-0.8-2.1-1.3-4.2-1.3-6.1c0-0.7,0-1.2-0.1-1.5c-0.1-0.2-0.1-0.4-0.1-0.5c0-0.3,0.2-0.4,0.5-0.4
		c0.3,0,0.7-0.1,1-0.2c0.4-0.1,1.9-0.1,4.5-0.1c2,0,3.1,0.1,3.3,0.4c0.2,0.2,0.4,0.4,0.6,0.5c0.3,0.1,0.7,0.8,1.2,1.8
		c0.6,1.3,0.9,2.6,0.9,3.8c0,1.2-0.2,4.3-0.7,9.2c-0.1,1.2-0.2,2.3-0.2,3.3c0,0.4,0,0.9,0.1,1.4c0.1,0.3,0.2,0.6,0.2,0.9
		c0,0.3-0.1,0.5-0.4,0.8c-0.2,0.3-0.7,0.5-1.5,0.5c-0.3,0-0.6,0-0.9-0.1c-0.4,0.1-0.8,0.3-1.4,0.4
		C-13.1,368.2-13.6,368.2-14.1,368.2 M-11.1,364.3c0.2-1.8,0.4-3.4,0.6-4.9c-0.8,0.2-1.6,0.4-2.2,0.5c-0.8,2.6-1.2,3.9-1.2,4.2
		c0,0.8,0.3,1.3,0.8,1.3C-12.4,365.3-11.7,364.9-11.1,364.3 M-12.7,326.3c-0.5,0-1-1.3-1.3-3.7c0-0.3,0.2-0.5,0.6-0.6
		c1.4,0,3.3-0.5,5.7-1.4c0.6-0.2,1.1-0.7,1.6-1.6c-0.1,0-0.2,0-0.3,0c-1,0-1.7-0.3-2.2-0.8c-0.3-0.4-0.5-1-0.5-1.9v-2.6
		c-1.6,0.4-3.3,1-5.2,1.6c-0.3,0-0.5-1-0.5-3.1c0-0.4,0.3-0.7,0.9-1c1.8-0.8,3.4-1.4,4.8-1.8v-5c-3.2,0.6-6.1,1.2-8.7,1.7
		c-0.5,0.3-1.1,0.5-1.8,0.5c-0.2-0.9-0.4-1.7-0.7-2.4c-0.4-1.2-0.7-2.3-0.8-3.4c0.1-0.6,0.3-0.9,0.6-1c0.1,0,0.6,0.2,1.5,0.7
		c1,0.6,1.9,0.9,2.6,0.9c2,0,4.4-0.3,7.3-0.8v-11.7c0-2.1,0.1-3.8,0.2-5.3c0.2-1.3,0.5-1.9,0.8-1.9c0.2,0,0.6,0.3,1.3,0.8
		c0.7,0.7,1.4,1.2,2.1,1.5c0.6,0.3,1.6,1.3,3,3.1c0.9,1,1.4,1.6,1.4,1.9c0,0.4-0.2,0.6-0.5,0.6c-2-1.1-3.5-1.6-4.6-1.6
		c-0.7,0-1,1-1,2.9v9.2c0.5-0.1,0.9-0.1,1.4-0.2c4.2-0.9,7.4-2.1,9.5-3.5c0.4,0,0.9,1.7,1.3,5l-0.9,0.4H3.7c-3.6,0.7-7,1.4-10.1,2
		v4.9c1.4-0.3,3.2-1,5.2-1.8c0.4,0,0.7,0.5,0.9,1.5c0.2,0.8,0.3,1.5,0.3,2.2c0,0.5-0.2,0.8-0.6,0.8c-0.8,0.1-2.7,0.6-5.7,1.5l0,0.9
		c0,1.3,0.2,2.4,0.6,3.2c0.2,0.2,0.3,0.3,0.4,0.5c0.6-0.7,1.4-1.2,2.5-1.3c1.9-0.5,3.2-0.8,4-0.8c0.4,0,0.6,0.2,0.6,0.6
		c-2.1,2.5-4.2,4.5-6.3,6.2c-1.7,1.4-3.4,2.3-5,2.6C-10.7,324.8-11.8,325.3-12.7,326.3 M-5.4,274.6c-0.2,0-0.7-0.4-1.5-1.2
		c-0.7-0.8-1-1.4-1-1.7c0-0.2,0.2-0.5,0.5-0.8c1.1-1.6,2.4-4,3.9-7.2c0,0,0.1-0.1,0.1-0.2c-1.4,0.3-5,1.4-10.6,3.3
		c-0.4,0-0.5-0.9-0.5-2.7c0-0.4,0.3-0.8,1-1.1c2.1-1.1,3.9-1.8,5.3-2.1c1.2-0.3,2.8-0.9,4.5-1.8c0.4,0,0.7,0.5,0.9,1.5
		c0.1,0.3,0.2,0.7,0.2,1c0.2-0.5,0.3-1.1,0.3-1.6c0.2-1,0.5-1.7,1.1-2.4c0.2-0.2,0.4-0.4,0.5-0.6c-0.2-0.1-0.4-0.1-0.6-0.2
		c-0.8-0.2-1.2-0.5-1.2-0.7c0-0.1,0-0.4,0.1-0.8c0-0.5,0.1-0.8,0.1-0.9c0-0.4,0-0.9,0-1.3c-0.4,0.1-0.9,0.2-1.3,0.4
		c-0.3,0.1-0.6,0.1-0.8,0.1c0.1,1.2,0.2,2,0.4,2.5c0.2,0.5,0.3,1,0.3,1.4c0,0.4-0.5,0.6-1.5,0.6c-0.7,0-1-0.4-1-1.1c0-1,0-2,0-3.1
		c-0.7,0.1-1.5,0.3-2.3,0.5l-0.1,3.1c0,0.3,0,0.6,0.1,1c0,0.2-0.1,0.3-0.2,0.5c-0.2,0.2-0.5,0.3-0.9,0.3c-0.3,0-0.7-0.1-1.1-0.3
		c-0.3-0.2-0.5-0.4-0.5-0.6c0-0.1,0.1-0.2,0.2-0.4c0.2-0.3,0.4-0.9,0.5-1.7c0-0.6,0.1-1.1,0.1-1.7c-0.8,0-1.6,0.1-2.3,0.3
		c-0.1,1.3-0.1,2.8-0.2,4.3c0,0.6-0.3,0.9-0.9,0.9c-1.3,0-2-0.4-2-1.1c0.4-0.5,0.7-1.3,0.8-2.3c0.1-0.4,0.1-0.8,0.2-1.2
		c-0.1,0-0.1,0-0.2,0c-0.8,0.4-1.4,0.6-1.9,0.6c-0.3,0-0.7-1.3-1.2-3.9c0-0.3,0.3-0.4,0.7-0.4l1.7,0.2c0.4,0,0.8,0,1.4-0.1
		c0.3-2.4,0.5-4.1,0.6-5.2c-1.3,0.2-2.5,0.4-3.6,0.6c-0.6,0.2-1.2,0.4-1.8,0.4c-0.2-0.6-0.3-1.2-0.6-1.8c-0.3-0.9-0.5-1.8-0.6-2.7
		c0.1-0.6,0.2-0.9,0.4-1c0.1,0,0.6,0.2,1.3,0.6c0.8,0.4,1.5,0.6,2.2,0.6c2.8,0,6.7-0.3,11.5-1c4.2-0.7,7.4-1.5,9.5-2.5
		c0.3,0,0.6,1.2,1,3.6l-0.7,0.2H3.7c-1.6,0.3-3.2,0.6-4.7,0.8c0,0.1,0,0.3-0.1,0.4c0,0.3,0,0.7,0,1c0.2,1.2,0.3,2.3,0.5,3.3
		c0.9-0.4,1.8-0.8,2.6-1.3c0.2,0,0.5,0.4,0.9,1.2c0.4,1.1,0.6,1.7,0.6,1.9c0,0.4-0.2,0.6-0.7,0.8c-0.9,0.1-1.9,0.2-3,0.4
		c0.2,1.7,0.4,2.9,0.5,3.6c0.4-0.3,0.7-0.5,1-0.6c0.7-0.3,1.4-0.7,2-1.1c0.1,0,0.2,0.1,0.2,0.4c0,0.3-0.2,0.9-0.7,1.5
		c-1.8,3-3.3,5.8-4.6,8.5c-1.4,3.1-2.4,6.1-3.1,8.8C-5.1,274.4-5.3,274.6-5.4,274.6 M-2.9,245.3c-0.7,0.1-1.3,0.2-1.9,0.3
		c0,2.1,0.1,3.9,0.2,5.4c0.8-0.2,1.5-0.4,2.2-0.6C-2.6,248.7-2.7,247-2.9,245.3 M-6.5,245.9c-0.6,0.1-1.2,0.2-1.8,0.3
		c0,0.2,0,0.4,0,0.7l-0.2,4.8c0.5-0.1,0.9-0.1,1.4-0.2c0.2,0,0.5-0.1,0.7-0.1C-6.4,249.6-6.5,247.8-6.5,245.9 M-10.2,246.4
		c-0.6,0.1-1.2,0.2-1.8,0.4c-0.2,1.3-0.4,3.1-0.6,5.3c0.7-0.1,1.4-0.1,2.3-0.3c0.1-1.6,0.1-2.9,0.1-3.6c0-0.6,0-1.1,0-1.5
		L-10.2,246.4 M-0.6,241.5c-0.4,0-0.6-0.1-0.6-0.4c0.6-2.5,0.9-4.2,1.1-5.2c0.1-1,0.2-1.8,0.4-2.6c0.1-0.7,0.2-1.4,0.3-2.1
		c0-0.6,0.1-0.9,0.2-0.9c0.4,0,0.8,0.6,1.3,1.7c0.7,1.2,1,2,1,2.4c0,0.3-0.2,0.5-0.5,0.6c-0.3,0.4-0.6,1-0.9,1.7
		C1.4,237.8,0.6,239.4-0.6,241.5 M-4.3,240.8c-0.2-0.2-0.4-0.7-0.6-1.7c-0.3-1-0.6-1.8-1-2.6c-0.4-1.1-0.7-2.2-0.7-3.3
		c0-0.5,0.2-0.8,0.6-0.8c0.6,0.7,1.2,1.1,1.7,1.4c0.6,0.2,0.8,1.5,0.8,3.7c0,1.1-0.1,1.9-0.3,2.6C-4,240.6-4.2,240.8-4.3,240.8
		 M-9.8,241.3c-0.2-0.2-0.4-0.7-0.6-1.6c-0.3-0.9-0.7-1.7-1.1-2.6c-0.5-1-0.7-2.1-0.8-3.1c0-0.6,0.2-0.9,0.6-0.9
		c0.7,0.6,1.3,1.1,1.9,1.3c0.6,0.2,0.9,1.5,0.9,3.6c0,1-0.1,1.8-0.3,2.6C-9.5,241-9.7,241.2-9.8,241.3 M-13.6,242.7
		c-0.2,0-1.3-0.8-3.1-2.5c-0.6-0.7-1.1-1.2-1.5-1.3c-0.2-0.4-0.3-2-0.3-4.8c0-0.7,0.1-1.4,0.4-2.3c0.2-0.7,0.5-1.1,0.7-1.1
		c0.2,0,0.3,0.3,0.5,0.9c1,3.4,2,6.4,3.1,9c0.4,0.6,0.6,1.1,0.6,1.4C-13.2,242.5-13.4,242.7-13.6,242.7 M3.9,209.1
		c-0.2,0-0.5-0.1-1.1-0.4c-0.2,0.1-0.4,0.3-0.6,0.4c-2.1,1-5.1,1.8-9,2.5c-2.8,0.6-5.1,0.8-7,0.8c-2.6,0-4.5-0.5-5.7-1.5
		c-0.7-0.7-1.1-1.4-1.1-2c0-0.2,0.1-0.4,0.2-0.7c0.4-0.8,0.7-2.2,0.9-4.3c0.9-8.6,1.8-13.9,2.6-15.9c0.5-2,0.9-3.7,1.2-5.1
		c0.1-1.1,0.4-1.6,0.8-1.6c0.2,0,0.4,0.1,0.6,0.4c0.6,0.8,1.3,1.7,2.1,2.6c0.4,0.4,0.9,1.2,1.6,2.4c0.9-0.1,1.8-0.4,2.9-0.7
		c1.2-0.3,2.3-0.5,3.3-0.7c1.4-0.2,2.8-0.5,4.3-1c0.1,0,0.2,0.1,0.3,0.2c0.2,0,0.5-0.1,0.8-0.2c0.6,0,1.5,2.5,2.5,7.4
		c0.9,5.5,1.4,10.9,1.4,16.4C4.9,208.8,4.6,209.1,3.9,209.1 M0.1,188.5c-0.1,0.1-0.2,0.1-0.3,0.1c-7.4,1.2-11.3,1.8-11.6,1.9
		c-0.5-0.1-0.7-0.9-0.7-2.3c0-0.2,0-0.3,0-0.5c-0.6,0.7-1.1,2.2-1.6,4.6c-1.1,5.7-1.7,10.4-1.7,14.2c0,1.8,1.3,2.7,3.6,2.7
		c1.6,0,3.9-0.3,6.7-1c2.6-0.9,4.9-2.1,6.7-3.4c0.2-2.6,0.2-4.6,0.2-6C1.6,196.3,1.1,192.8,0.1,188.5 M-1.9,203l-1-0.3
		c-2.6,0.9-4.5,1.4-5.7,1.5c-1,0.2-1.5,0.3-1.5,0.3c-0.5,0-1-0.4-1.7-1.1c-0.6-0.7-0.8-1.4-0.8-1.9c0-0.2,0.2-0.5,0.5-0.8
		c0.4-0.5,1-2.4,1.9-5.6c0.2-0.9,0.4-1.3,0.7-1.4c0.3,0,0.7,0.2,1.1,0.7c2.3-0.6,3.7-1.1,4-1.4c0.2-0.2,0.4-0.2,0.6-0.2
		c0.5,0,1,1.5,1.7,4.3c0.5,2.3,0.7,3.8,0.7,4.6C-1.6,202.6-1.7,203-1.9,203 M-4.6,196.5c-0.4,0-1.4,0.2-2.9,0.6
		c-0.3,0-0.6,0.2-0.8,0.7c-0.3,0.8-0.5,1.6-0.5,2.4c0,1.1,0.2,1.6,0.5,1.6c0.5,0,1.2-0.1,2.1-0.5c1.1-0.5,1.6-1,1.6-1.4
		C-4.5,197.6-4.5,196.5-4.6,196.5 M-13.8,156.5c-0.4-0.1-0.8-1.6-1.2-4.3c0-0.4,0.3-0.7,0.8-0.8c2.7-1.5,5.1-2.6,7.1-3.4
		c0.1-0.4,0.1-0.8,0.2-1.2c0,0,0-0.1,0-0.1c-0.4-1.4-2-3.9-4.6-7.5c-3.1-4-5.4-6.6-7.1-7.9c-1.2-0.7-2.2-1.6-3.1-2.7
		c-0.7-0.6-1.1-1.2-1.1-1.6c0.1-0.4,0.4-0.7,0.9-0.7c2.8,0,5.1,0.3,7,0.8c1.1,0.4,1.7,1.1,1.8,2.1c0,1.4,0.2,2.4,0.6,3.1
		c1.5,3.1,3.6,6,6.4,8.8c0,0,0.1,0.1,0.1,0.1c1-3.8,2.7-7.3,5.1-10.5c0.9-1.1,1.5-2.1,1.8-2.9c0.2-0.5,0.3-0.8,0.5-0.8
		c1.1,0.2,2.1,0.4,2.9,0.4c0.6,0,1.3,0.3,2.3,1c0.5,0.4,0.8,0.7,0.8,0.9c0,0.4-0.2,0.7-0.6,0.8c-3.2,0.7-5.9,2.7-8.1,6.1
		c-1.3,2.5-2.3,6.1-3,10.8c0.3-0.1,0.6-0.1,0.9-0.2c2.1-0.4,3.6-1,4.6-1.6c0.3,0,0.6,1.1,0.9,3.4c0.1,1.2,0.2,2.1,0.3,2.6
		c-0.1,0.7-0.3,1.1-0.8,1.2c-2.4,0.1-4.6,0.4-6.6,0.9c-0.5,4.2-0.7,8.4-0.7,12.4l0.3,2.9c0,0.6-0.4,0.9-1.2,1c-0.4,0-1-0.1-1.7-0.5
		c-0.8-0.3-1.2-0.8-1.2-1.4c0-0.2,0.2-0.5,0.6-0.9c0.4-0.7,0.7-1.6,0.9-2.9c0.1-3.1,0.2-6.3,0.5-9.7c0-0.1,0-0.2,0-0.2
		c-1.5,0.4-2.9,1-4.2,1.7C-12.8,156.2-13.4,156.4-13.8,156.5 M-13.4,100.2c0.7,0,1.9-0.1,3.7-0.4c0.2-2,0.4-4.2,0.7-6.6
		c0.3-2.2,0.6-4.1,0.9-5.7c-1.2-1-2.8-2.7-4.7-5.1c-1.1-1.5-2.2-2.4-3.3-2.8c-0.6-0.2-1.8-1-3.5-2.3c-1-0.6-1.9-1.6-2.7-2.9
		c0-0.7,1.2-1.1,3.7-1.1c1.9,0.6,3.5,1,4.6,1c0.7,0,1,0.5,1.1,1.5c0,2,0.5,3.4,1.4,4.4c0.9,1,1.8,1.9,2.8,2.5c0.3,0.2,0.8,0.5,1.4,1
		c0.1-0.2,0.1-0.4,0.2-0.6c0.8-2.3,2.1-3.7,3.7-4.3c1.6-0.8,2.7-1.6,3.1-2.3c0.4-0.5,0.9-0.8,1.6-0.8c2.6,0,4.2,0.6,4.9,1.8
		c0.4,0.8,0.6,1.3,0.8,1.6c0.3,0.2,0.4,0.5,0.4,0.7c0,0.4-0.2,0.6-0.7,0.6c-0.3,0-0.7-0.1-1.3-0.3c-1-0.4-1.9-0.6-2.7-0.6
		c-0.9,0-1.9,0.4-2.8,1.1c-1.8,1-3,2-3.6,3.1c-0.3,0.4-0.6,1.1-0.9,2c0.6,0.4,1.2,1,1.8,1.5c0.8,0.7,1.5,1.1,2,1.1
		c0.3,0.1,0.5,1.4,0.5,3.7c0,1.6-0.3,2.4-0.9,2.4c-0.4,0-0.8-0.5-1.3-1.6c-0.5-1.2-1.3-2.4-2.6-3.5c-0.1-0.1-0.2-0.3-0.4-0.4
		c-0.2,1.1-0.5,2.3-0.7,3.6c-0.3,1.6-0.5,3.8-0.8,6.6c0.2,0,0.4-0.1,0.6-0.1c2.8-0.6,5.3-1.5,7.3-2.8c0.2,0,0.6,0.4,1,1.3
		c0.4,1.3,0.7,2.1,0.7,2.3c0,0.4-0.3,0.7-0.8,0.9c-1.4,0.1-3.2,0.5-5.5,1.4c-1.1,0.3-2.4,0.6-3.7,1c-0.2,2.5-0.4,5.3-0.6,8.4
		c0,0.4,0.1,1,0.2,1.7c0.2,0.5,0.3,0.9,0.3,1.1c0,0.4-0.4,0.6-1.1,0.6c-0.7,0-1.4-0.2-2.1-0.7c-0.5-0.2-0.8-0.4-0.8-0.7
		c0-0.2,0.1-0.5,0.2-0.8c0.3-0.4,0.5-1.6,0.6-3.6c0-1.5,0.1-3.4,0.3-5.5c-1.2,0.2-2.2,0.5-3,1c-0.7,0.4-1.3,0.6-1.6,0.6
		c-0.5,0-1.1-1.7-1.7-5.1c0-0.4,0.3-0.7,0.8-0.7L-13.4,100.2 M-12.3,55.8c-0.2,0-0.3-0.7-0.4-2c0-1,0.2-1.6,0.6-1.8
		c2.1-1.6,3.7-2.7,4.8-3.4c0.1-1.5,0.2-2.9,0.3-4.2c-2.5,0.8-4.6,1.7-6.4,2.7c-0.3-0.1-0.9-1.8-1.8-5.1c0.1-0.7,0.3-1.1,0.8-1.1
		c2.9-0.3,5.3-0.6,7.3-1c-0.6-1.5-2.1-3.8-4.4-6.9c-3.1-3.9-5.4-6.5-7.1-7.8c-1.2-0.7-2.2-1.5-3.1-2.6c-0.7-0.7-1.1-1.2-1.1-1.6
		c0.1-0.4,0.4-0.6,0.9-0.6c2.8,0,5.1,0.3,7,0.8c1.1,0.4,1.7,1.1,1.8,2.1c0,1.4,0.2,2.5,0.6,3.1c1.5,3.1,3.6,6,6.4,8.7
		c0.1,0.1,0.3,0.2,0.4,0.3c0.5-2,1.1-3.6,1.8-4.8c0.7-1.4,1.2-2.8,1.4-4.5c1.5-1.7,3.1-3,4.6-3.9c1.2-0.4,2.2-0.6,3-0.6
		c1,0,1.5,0.2,1.5,0.7c0,0.1-0.4,0.4-1.1,1c-2.8,2.2-5.1,4.7-6.8,7.4c-1.2,2.1-2.1,4.9-2.7,8.3c0.7-0.2,1.3-0.4,1.9-0.7
		c1.6-0.6,2.8-0.9,3.7-0.9c0.4,0,1,1.3,1.9,3.8c0,0.5-0.2,0.8-0.6,0.9c-2.8,0.4-5.3,0.8-7.5,1.4c-0.2,1.3-0.3,2.8-0.4,4.4
		c0,0,0.1,0.1,0.1,0.1C-4.2,48-3.8,48-3.6,48c0.3-0.1,0.8-0.3,1.5-0.5c0.6-0.4,1.2-0.7,1.5-0.8c0.2,0,0.4,0.5,0.5,1.5
		c0,0.9,0.2,1.7,0.3,2.4c0.2,0.6,0.4,1.2,0.4,1.7c0,0.4-0.2,0.7-0.4,0.8l-3.8-0.2c-0.5,0-0.9,0-1.4,0.1c0,1.4,0,2.9,0,4.5l0.4,7.9
		c-0.2,0.7-0.5,1-1.1,1c-2-0.2-2.9-0.6-2.9-1.3c0.4-2.4,0.7-5.6,1-9.7c0-0.6,0-1.2,0.1-1.7c-0.8,0.3-1.6,0.7-2.4,1.1
		C-11.3,55.5-12.1,55.8-12.3,55.8"/>
</g>
</svg>
